<svg style="max-height: 500px" xmlns="http://www.w3.org/2000/svg" version="1.1" xmlns:xlink="http://www.w3.org/1999/xlink" viewBox="182.6981798941799 244.3008 100.12698412698413 72.36" width="100.12698412698413" height="72.36">
  
  <defs>
    <style>
      .st0 {
        font-size: 14px;
      }

      .st0, .st1, .st2 {
        font-family: KleinSlabserifBlaxX, KleinSlabserifBlaxX;
      }

      .st3 {
        fill: #a3b5c4;
      }

      .st4 {
        font-family: 2-TitrBold, '2  Titr';
        font-size: 16px;
        font-style: italic;
        font-weight: 700;
      }

      .st4, .st5, .st2 {
        fill: #424242;
      }

      .st6 {
        fill: #fff;
      }

      .st1 {
        font-size: 12px;
      }

      .st1, .st7 {
        fill: #2ECC71;
      }

      .st2 {
        font-size: 13px;
      }

      .st8 {
        fill: url(#Degradado_sin_nombre_145);
      }

      .st9 {
        fill: none;
        stroke: #424242;
        stroke-miterlimit: 10;
        stroke-width: 4px;
      }
    </style>
<!--     <radialGradient id="Degradado_sin_nombre_145" data-name="Degradado sin nombre 145" cx="250" cy="250" fx="250" fy="250" r="279.99" gradientUnits="userSpaceOnUse">
      <stop offset="0" stop-color="#f9f9f9"/>
      <stop offset=".45" stop-color="#f6f5f8"/>
      <stop offset=".81" stop-color="#efebf4"/>
      <stop offset="1" stop-color="#e9e3f2"/>
    </radialGradient> -->
  </defs>
<!--   <g id="BACKGROUND">
    <rect class="st6" width="500" height="500"/>
    <rect class="st8" width="500" height="500"/>
  </g> -->
  <g id="OBJECTS">
    <g>
      <path class="st7" d="M274.04,263.11c-.76,0-1.49.16-2.17.48-.09.04-2.42,1.21-2.49,1.25-1.14.61-2,1.65-2.47,2.93-.37-.08-.74-.11-1.11-.11-.76,0-1.49.16-2.17.48-.09.04-2.42,1.21-2.49,1.25-1.44.77-2.41,2.17-2.73,3.86,0-.05-.02-.09-.03-.14-.23-1.04-.67-1.96-1.28-2.69.2-1.88-.17-3.72-1.05-5.24-.57-.98-1.36-1.85-2.27-2.54.6-.01,1.02-.26,1.26-.48.62-.54.81-1.28.99-1.98.04-.16.08-.28.1-.36,1.73-.83,2.5-2.54,3.08-4.08.7-1.84.68-3.78-.05-5.19-.89-1.72-2.42-2.72-3.54-3.25-1.25-.59-2.62-.91-3.96-.91-.45,0-.89.04-1.32.1-1.91.31-3.66,1.31-4.81,2.75-.3.38-.54.76-.77,1.13-.16.25-.3.48-.45.68-.67.91-1.69,1.59-2.79,1.86-.03,0-.06,0-.1,0-.23,0-.59-.09-.96-.19-.44-.12-.95-.25-1.5-.3-.37-.03-.71-.05-1.03-.05-1.06,0-1.97.16-2.78.49-.07-.01-.14-.02-.21-.03l-.31-.04-.94-.11c-.42-.05-.89-.11-1.4-.11-.13,0-.26,0-.38.01-.67.04-1.27.19-1.73.32-.49.14-1.13.34-1.76.69-.8.45-1.54,1.11-2.19,1.96-.3.4-.58.83-.89,1.37,0,0,0,0,0,0-1.14.36-2.2,1.09-3.06,2.13-.91,1.1-1.49,2.36-1.93,3.45l-.05.12c-.14.35-.28.69-.43.91-.09.14-.23.29-.38.44,0-.13-.02-.25-.04-.37-.04-.28-.11-.55-.2-.81-.17-.49-.42-.95-.74-1.35-.39-.49-.8-.81-1.25-.98-.21-.08-.44-.13-.66-.13-.12,0-.24.01-.36.04-.32.07-.63.25-.86.5-.1.11-.18.23-.25.36-.09-.48-.18-.98-.27-1.54-.01-.31-.03-.58-.06-.82-.05-.46-.13-.89-.25-1.29-.12-.96-.21-1.91-.28-2.82-.04-.62-.09-1.29-.46-1.92-.54-.93-1.56-1.35-2.23-1.62-.7-.29-1.4-.54-2.16-.54-.25,0-.5.03-.73.09-.96.24-1.65.96-2.15,1.48l-.91.95-.78.81c-2.44.98-4.05,2.91-4.45,5.32-.14.87-.05,1.71.02,2.33.14,1.23.32,2.44.95,3.57.23.41.49.77.72,1.09.15.21.29.4.41.58.21.34.28.79.37,1.36.04.27.15.89.65,1.41.23.23.51.41.82.52-.36.33-.68.72-.92,1.15-.6,1.05-.72,2.14-.79,3.09l-.02.33c-.05.67-.1,1.36-.05,2.11-.06.13-.11.26-.17.39-.4-.71-.98-1.29-1.72-1.69-.06-.03-1.92-.96-1.99-1-.56-.27-1.17-.4-1.8-.4-.25,0-.51.02-.76.07-.4-1-1.1-1.8-2-2.28-.06-.03-1.92-.96-1.99-1-.57-.27-1.17-.4-1.81-.4-1.97,0-3.85,1.29-4.79,3.29-.6,1.29-.74,2.7-.4,3.99.36,1.34,1.21,2.38,2.38,2.93.03.01.28.14.6.3,1.3.65,1.31.65,1.35.67.52.22,1.08.33,1.66.33.25,0,.51-.02.76-.06.43,1.07,1.19,1.91,2.19,2.38.02.01.28.14.6.3.87.43,1.16.58,1.27.63,1.1,1.1,2.07,2.01,3.12,2.87.83.67,1.61,1.21,2.4,1.67.06.03.13.08.2.12.61.38,1.5.93,2.5.93.31,0,.61-.05.89-.16.1.83.13,1.59-.08,2.26-.26.84-.68,1.67-1.13,2.54l-.2.39c-1.59,3.16-2.94,6.46-4.01,9.85.26.17.52.33.78.49.02-.07.04-.15.07-.22,1.06-3.34,2.39-6.6,3.96-9.72.07-.13.13-.26.2-.39.46-.91.9-1.77,1.19-2.68.12-.37.17-.74.19-1.13.02-.51-.02-1.04-.09-1.6-.02-.14-.04-.28-.06-.42-.02-.13-.04-.27-.05-.41s-.04-.3-.05-.45c-.07.09-.16.16-.24.23-.15.11-.3.19-.42.24-.02.01-.05.02-.07.03s-.04.02-.05.03c-.14.08-.28.14-.44.18-.12.03-.25.05-.38.05-.33,0-.66-.09-.98-.23-.12-.05-.24-.11-.36-.17-.25-.13-.48-.27-.68-.4-.09-.05-.17-.1-.24-.14-.75-.43-1.49-.95-2.29-1.59-1.13-.91-2.17-1.92-3.17-2.92-.03-.01-.06-.02-.08-.03-.01,0-.2-.1-.45-.22-.2-.1-.45-.22-.68-.34-.26-.13-.5-.25-.64-.32-.08-.04-.13-.07-.14-.07-.08-.04-.16-.09-.24-.13-.91-.53-1.51-1.45-1.72-2.53-.11.04-.22.08-.33.11-.03.01-.07.02-.11.03-.08.02-.16.04-.23.06-.04,0-.09.01-.13.02-.07.01-.14.02-.21.03-.05,0-.1,0-.15,0-.06,0-.13,0-.19,0,0,0,0,0-.01,0-.06,0-.12,0-.18,0-.05,0-.1,0-.14,0-.07,0-.13-.02-.2-.03-.05,0-.09-.01-.14-.02-.07-.01-.15-.03-.22-.05-.04,0-.07-.02-.11-.03-.1-.03-.21-.07-.31-.11,0,0,0,0-.01,0-.01,0-.2-.1-.45-.22-.05-.03-.1-.05-.16-.08-.22-.11-.47-.23-.69-.34-.11-.05-.21-.11-.3-.15-.18-.09-.3-.15-.31-.15-.24-.11-.46-.25-.66-.41-.4-.32-.72-.73-.96-1.2-.12-.23-.21-.48-.28-.74-.04-.13-.06-.26-.09-.4-.16-.94-.04-1.99.43-2.98.09-.19.19-.37.3-.55.03-.04.05-.08.08-.12.11-.17.23-.33.36-.48,0-.01.02-.02.03-.03.12-.14.25-.27.38-.4.03-.03.07-.06.1-.09.14-.13.29-.24.44-.35.02-.01.04-.02.06-.04.14-.09.28-.18.43-.25.04-.02.08-.04.12-.06.16-.08.33-.15.49-.2.03,0,.06-.02.08-.02.15-.05.3-.08.45-.11.04,0,.08-.02.12-.02.17-.03.34-.04.51-.04.01,0,.02,0,.03,0,.06,0,.12,0,.17,0,.05,0,.11,0,.16,0,.07,0,.15.02.22.03.05,0,.1.01.15.02.08.02.16.04.24.07.04.01.08.02.12.03.12.04.24.09.36.14.01,0,.14.07.32.16.09.05.2.1.31.15.56.28,1.29.65,1.32.66.12.06.24.14.35.21.11.08.21.16.31.25.3.27.54.59.74.95.06.12.12.24.18.37.1.25.18.52.24.8.11-.04.23-.08.34-.11.04-.01.07-.02.11-.03.08-.02.16-.04.24-.06.04,0,.09-.01.13-.02.07-.01.14-.02.21-.03.05,0,.1,0,.15,0,.06,0,.12,0,.18,0,0,0,.01,0,.02,0,.07,0,.14,0,.21.01.05,0,.1,0,.15,0,.07,0,.14.02.22.03.05,0,.09.01.14.02.08.02.16.04.24.07.04.01.08.02.11.03.12.04.23.08.34.14,0,0,.08.04.2.1.34.17,1.03.51,1.44.72.18.09.31.15.32.16.34.18.64.42.89.69.84.92,1.19,2.31.92,3.71-.05.28-.13.56-.24.84-.05.14-.11.28-.17.42-.02.03-.03.06-.05.09-.02.03-.03.06-.05.1.28.15.56.29.84.43-.01-.23-.02-.47-.02-.7,0,0,0-.01,0-.02,0,0,0-.02,0-.02,0-1.2.19-2.39.56-3.53.15-.46.32-.91.53-1.34-.04-.38-.05-.75-.04-1.12,0-.18.01-.36.03-.54.01-.18.02-.36.04-.53,0-.04,0-.07,0-.11,0-.07.01-.15.02-.22.06-.85.16-1.83.67-2.71.1-.17.2-.33.32-.48.36-.45.82-.83,1.33-1.08.16-.08.31-.14.47-.2-.08-.07-.15-.14-.2-.23,0,0-.01,0-.02-.01-.22-.09-.43-.23-.6-.41-.01-.01-.02-.02-.03-.03-.07.02-.17.05-.28.06-.01,0-.03,0-.04,0-.04,0-.07,0-.11,0h0c-.08,0-.16,0-.24-.02-.24-.05-.46-.17-.64-.34-.31-.31-.37-.71-.41-.93-.08-.48-.15-.91-.31-1.3-.05-.13-.11-.26-.19-.38-.13-.21-.28-.42-.44-.64-.22-.31-.46-.63-.66-.99-.34-.62-.53-1.29-.66-1.98-.08-.41-.13-.84-.18-1.27-.03-.3-.07-.63-.09-.98-.01-.35,0-.72.06-1.1.13-.81.43-1.55.86-2.22.07-.11.15-.22.23-.32.16-.21.33-.41.52-.6.47-.48,1.03-.88,1.67-1.21.25-.13.52-.25.8-.35.61-.64,1.22-1.27,1.83-1.91.39-.41.81-.83,1.31-1.07.13-.07.27-.12.42-.16,0,0,0,0,0,0,.09-.02.18-.04.27-.05.03,0,.06,0,.09,0,.05,0,.1,0,.15,0,0,0,.02,0,.03,0,.13,0,.27.01.4.04.03,0,.06.01.09.02.12.02.25.05.37.09.02,0,.03,0,.05.01.14.04.27.09.41.14.03.01.07.02.1.04.13.05.25.1.38.15.52.21,1.06.44,1.46.82.13.12.25.27.34.43.27.46.3,1.01.34,1.54.05.74.13,1.47.21,2.2.03.24.05.49.08.73.06.18.1.37.14.57.04.2.07.41.09.63.03.27.04.55.05.81.1.61.21,1.22.32,1.82.12.29.24.58.38.87.14.29.29.58.45.87.12.15.24.31.38.46.27.29.57.56.91.79.08.06.17.11.26.16.03.02.05.03.08.04.06.03.12.06.18.09.03.01.07.02.1.03.05.02.11.04.16.05.04,0,.07,0,.11.01.06,0,.12.02.18.02.09,0,.18-.02.26-.05.08-.03.16-.07.22-.12.08-.06.13-.15.17-.26.03-.06.05-.12.06-.19,0-.05,0-.1.01-.15.01-.14.01-.29,0-.44,0,0,0,0,0-.01-.02-.2-.05-.4-.11-.6-.1-.39-.27-.74-.48-1.05-.05-.08-.11-.15-.16-.22-.17-.21-.36-.38-.58-.48-.06-.03-.13-.05-.19-.06-.02,0-.04,0-.06,0-.06,0-.12-.01-.17,0-.14.02-.26.09-.35.17-.19.18-.26.41-.3.6-.01.06-.01.12-.02.17-.01.11-.01.21-.02.28,0,.1,0,.16,0,.16h0s0,0,0,0c0,0,0-.06-.01-.16,0-.05,0-.12,0-.19,0-.08,0-.16.01-.26.02-.14.05-.32.15-.49.03-.06.07-.11.12-.17.07-.08.17-.14.28-.19.04-.01.07-.04.11-.04h0c.05-.01.11-.02.16-.02.02,0,.04,0,.06,0,.02,0,.04,0,.06,0,.08.01.15.03.22.06,0,0,0,0,0,0,.17.06.32.16.47.28.07.06.14.13.21.2.07.07.13.14.19.22.25.31.45.68.6,1.09.07.21.13.42.16.64.03.22.06.45.03.7-.02.18-.08.38-.19.56-.04.06-.08.11-.14.16-.2.2-.47.3-.73.33,0,0,0,0,0,0-.06,0-.11,0-.17,0,0,0,0,0-.01,0-.09,0-.18-.01-.27-.03-.02,0-.04,0-.06-.01-.09-.02-.17-.04-.25-.07h0s-.05-.02-.07-.03-.05-.02-.07-.03c.15.15.3.3.46.43.1.09.2.16.29.24.38.3.76.56,1.14.77.16.09.32.17.47.24.61.28,1.17.41,1.56.47.13.03.24.04.33.04.05,0,.1,0,.13.01.11,0,.16.01.16.01,0,0-.01,0-.04,0-.03,0-.07,0-.12,0-.06,0-.14,0-.23,0-.03,0-.06,0-.09,0-.05,0-.1,0-.15,0-.4,0-.99-.06-1.66-.27-.67-.2-1.43-.55-2.17-1.04-.37-.25-.73-.53-1.09-.85-.18-.17-.36-.34-.54-.53.07.1.15.2.22.29.16.19.33.36.51.52.46.4.97.73,1.46,1.01l.25.15c.26.15.51.29.76.44.37.23.74.46,1.09.73.12.09.23.18.34.28.22.19.44.41.65.64l.14.04.27.07.65.17c.07.02.14.04.21.06.22.06.46.15.69.29.24.15.42.33.59.52.59.62,1.26,1.38,1.78,2.28.24.42.43.88.56,1.36.13.48.2.98.22,1.48.22.4.42.82.61,1.24.09.21.18.42.27.64.17.43.32.87.45,1.31.13.44.25.89.34,1.34.15.68.25,1.36.31,2.04.02.23.04.46.05.68.05,1.14-.01,2.26-.2,3.34,1.05,2.52,1.85,5.17,2.39,7.91.07.35.14.7.2,1.05.11.62.21,1.24.35,1.86.04.21.09.41.14.62.1.41.21.81.34,1.21s.28.78.46,1.15c.06.12.12.24.18.36.13-.09.27-.16.42-.19,0,0,.04-.01.11-.03.03,0,.07-.02.11-.03.22-.06.57-.15.92-.24.28-.07.56-.14.77-.2.21-.05.36-.09.36-.09h0c.06,0,.12-.01.17-.01,0,0,.02,0,.02,0,.03,0,.06,0,.09,0,.04,0,.08,0,.12.01.03,0,.06.02.1.02.04.01.08.02.12.03.03.01.07.03.1.04.04.02.08.03.12.05.03.02.07.04.1.05.04.02.08.04.11.07.03.02.06.04.1.07.04.03.08.06.11.09.03.03.06.05.1.08.04.03.07.07.11.1.03.03.06.06.09.09.04.04.07.08.11.12.03.03.06.07.09.1.03.04.07.09.1.13.03.04.06.08.09.12.03.05.07.1.1.15.03.04.05.08.08.13.03.05.06.11.09.16.03.04.05.09.08.13.03.06.06.12.09.18.02.05.05.09.07.14.03.06.06.13.09.19.02.05.04.09.06.14.03.07.06.14.08.22.02.05.03.09.05.14.03.08.05.17.08.26.01.04.02.08.04.11.04.13.07.25.1.39.22.94.25,1.85.11,2.6-.04.21-.09.42-.15.6-.06.19-.14.36-.23.51-.04.08-.09.15-.14.21-.2.27-.44.45-.72.53,0,0-.09.02-.21.06-.04.01-.09.02-.14.04-.21.05-.49.13-.77.2-.35.09-.7.18-.91.24-.13.03-.21.05-.21.06h0c-.09.02-.17.03-.26.03,0,0,0,0-.01,0-.07,0-.15,0-.22-.02-.02,0-.03,0-.05-.01-.06-.01-.13-.03-.19-.05-.03,0-.06-.02-.08-.03-.05-.02-.1-.04-.15-.07-.03-.02-.06-.03-.09-.05-.05-.03-.1-.06-.14-.09-.03-.02-.06-.04-.09-.07-.05-.04-.1-.08-.14-.12-.03-.03-.06-.05-.09-.08-.05-.05-.1-.1-.15-.15-.02-.03-.05-.05-.07-.07-.07-.08-.14-.17-.21-.26-.17.08-.34.12-.47.16-.38.1-.74.19-1.09.25-.35.07-.71.11-1.07.11-.04.24-.1.47-.17.68-.11.31-.26.58-.44.78-.18.21-.39.35-.63.42,0,0-.35.09-.77.2-.1.03-.2.05-.3.08-.16.04-.32.08-.46.12-.13.03-.25.07-.36.09-.21.05-.35.09-.36.09-.09.02-.18.03-.27.03,0,0-.01,0-.02,0-.03,0-.07,0-.1-.01-.07,0-.13-.01-.2-.03-.04,0-.08-.03-.12-.04-.06-.02-.12-.04-.18-.07-.04-.02-.08-.04-.12-.07-.06-.03-.12-.07-.18-.11-.04-.03-.08-.06-.12-.09-.06-.04-.11-.09-.17-.15-.04-.04-.08-.07-.12-.11-.06-.06-.11-.12-.17-.19-.04-.04-.07-.08-.11-.12-.06-.08-.12-.16-.18-.24-.03-.04-.06-.08-.08-.12-.08-.13-.17-.26-.24-.4-.03.27-.06.54-.1.81-.11.81-.25,1.6-.39,2.39-.05.3-.11.6-.16.89-.1.6-.2,1.19-.27,1.78.29.03.59.06.89.09.11-.86.26-1.72.41-2.61.07-.41.15-.83.22-1.26.04.03.07.05.11.07-.03,1.22.25,2.66.4,3.9,1.3.1,2.61.15,3.93.15.62,0,1.25-.01,1.87-.04-.11-1-.04-1.98-.04-1.98,0,0,.18.98.54,1.88,0,.03.02.05.03.08.12,0,.23,0,.35-.01.12-.36.24-.72.37-1.08.42-1.17,1.1-2.19,1.7-3.29.2-.37.39-.74.59-1.11.07,0,.14-.02.21-.04,0,0,.47-.12.97-.25-.32.61-.65,1.22-.98,1.83-.16.3-.33.59-.5.88-.44.77-.86,1.5-1.15,2.28-.08.23-.17.47-.25.71.32-.02.65-.05.97-.08.04-.11.08-.22.12-.33.26-.71.66-1.41,1.08-2.14.17-.29.34-.59.51-.9.47-.85.92-1.72,1.36-2.56.09-.02.15-.04.16-.04.53-.16.96-.52,1.29-1.03.15.34.3.69.42,1.05.6,1.65.93,3.4,1.15,5.06.29-.06.58-.12.87-.19-.22-1.7-.57-3.48-1.18-5.17-.23-.63-.5-1.24-.79-1.85.25-.95.27-2.13-.02-3.38-.58-2.48-2.08-4.21-3.64-4.21-.1,0-.2,0-.3.02q-.07,0-1.8.46c-.12.03-.23.06-.31.08-.54-1.29-.8-2.78-1.05-4.23-.4-2.29-.97-4.54-1.71-6.7.01,0,.02,0,.04.01.24.08.54.18.89.28.34.1.74.21,1.17.32.86.23,1.87.44,2.96.63.55.08,1.11.18,1.69.25.58.08,1.17.13,1.76.19.59.04,1.18.08,1.76.1.58.03,1.16.02,1.71.03.55,0,1.09-.02,1.6-.04.51-.02.99-.05,1.43-.1.44-.03.85-.08,1.2-.13.36-.04.67-.08.92-.13.51-.09.8-.13.8-.13,0,0-.3,0-.81,0-.26,0-.57,0-.93,0-.36,0-.76,0-1.2,0-.44,0-.92-.01-1.42-.02-.5,0-1.03-.03-1.58-.04-.55-.02-1.11-.05-1.69-.08-.57-.03-1.16-.08-1.74-.12-.58-.05-1.17-.1-1.74-.16-.57-.06-1.14-.12-1.68-.19-1.09-.14-2.1-.28-2.97-.43-.43-.07-.83-.13-1.19-.2-.35-.06-.66-.11-.91-.16-.04,0-.08-.01-.11-.02-.24-.7-.5-1.39-.78-2.08.35-2.19.21-4.57-.37-6.85.34-1.29.57-2.53.42-3.73-.06-.45-.19-.91-.34-1.4-.08-.27-.17-.55-.24-.84-.23-.91-.32-1.92-.28-2.93-.09.04-.18.07-.27.11-.64.23-1.24.39-1.87.51-.13.16-.27.3-.41.41-.18-.25-.37-.49-.56-.71.05-.04.1-.08.15-.13-.1-.02-.21-.04-.31-.06-.12-.13-.23-.26-.34-.38.07,0,.13,0,.2,0,.55.02,1.08-.04,1.39-.08.45-.1.89-.22,1.35-.38,1.69-.9,1.97-1.75,2.42-2.56.2-.35.36-.69.49-1,.07-.51.2-1.14.4-1.75.07-.22.15-.44.23-.65h0s0,0,0,0c.17-.43.35-.82.52-1.12.12-.23.23-.42.31-.55.08-.13.13-.2.13-.2,0,0-.04.08-.1.22-.06.14-.15.34-.24.58-.19.48-.39,1.14-.52,1.82-.03.14-.05.28-.07.41-.06.92-.2,1.9.09,2.56.04.03.08.05.13.09.11.07.25.17.41.26.17.09.36.19.56.3.84.42,2.04.84,3.29,1.1,1.25.27,2.55.39,3.52.43.97.04,1.62,0,1.62,0,0,0-.64.11-1.62.17-.98.06-2.29.08-3.6-.05-.95-.09-1.9-.28-2.72-.51-.09,0-.19-.01-.3,0-.09,0-.19.01-.29.02-.52,1.27-.76,2.64-1,4-.25,1.42-.49,2.87-.25,4.29.11.66.33,1.3.35,1.97.03.77-.19,1.52-.39,2.25-.14.52-.28,1.04-.41,1.56.05.05.1.1.16.16.47.47,1.05,1.14,1.56,1.89.51.74.94,1.54,1.21,2.17.08.18.15.34.2.49,1.74.36,3.49.74,5.23.91,1.4.13,3.45.14,5.42,0,.28-.51.71-1.27,1.18-2,.8-1.28,1.7-2.48,1.7-2.48,0,0-.76,1.29-1.41,2.64-.31.64-.59,1.28-.81,1.79,1.18-.1,2.31-.25,3.21-.45-.29-1.49-.54-2.99-.81-4.49-.36-2,.15-3.91-.14-5.91-.12-.49-.17-.86-.26-1.27,0,.39,0,.82-.03,1.27-.05.58-.12,1.2-.22,1.82-.12.61-.27,1.22-.43,1.78-.18.56-.36,1.07-.54,1.5-.09.22-.18.41-.26.58-.08.17-.15.32-.21.44-.13.24-.2.38-.2.38,0,0,.05-.15.13-.41.04-.13.09-.28.15-.46.06-.18.12-.38.18-.61.14-.44.27-.96.4-1.52.14-.56.27-1.16.37-1.76.12-.6.21-1.21.27-1.78.07-.57.13-1.11.16-1.57.02-.2.03-.38.04-.54-.15-.77-.16-1.22-1.86-1.91.38-.03.81.01,1.25.07-.36-.18-.73-.38-1.09-.61-.52-.33-1.02-.73-1.41-1.16-.4-.43-.69-.89-.9-1.3-.11-.2-.18-.4-.26-.57-.06-.17-.12-.32-.16-.45-.07-.25-.12-.4-.12-.4,0,0,.06.14.17.38.06.12.13.26.22.42.1.15.19.33.33.51.25.36.59.75,1.01,1.09.42.34.92.64,1.45.87.53.24,1.08.43,1.61.59.51.16,1.01.26,1.43.33.25.04.47.07.65.08.39-.24.76-.6,1.14-.91.04-.04.08-.08.12-.13.27-.28.56-.58.86-.87.25-.27.44-.61.58-.96.02-.05.03-.1.05-.15h0s0,0,0,0c.1-.3.17-.59.21-.85.05-.31.09-.57.11-.75.02-.18.03-.29.03-.29,0,0,0,.1.03.29.02.18.04.44.05.76,0,.23,0,.49-.02.77.06,0,.13-.02.21-.02.37-.04.86-.03,1.34.04.48.07.94.22,1.26.36.33.14.53.26.53.26,0,0-.22-.08-.56-.16-.34-.08-.8-.13-1.25-.12-.45.01-.9.09-1.22.18-.19.05-.33.1-.42.14-.08.3-.19.61-.37.91-.23.38-.47.71-.67,1.04-.2.33-.38.63-.51.89-.01.02-.02.04-.03.06-.19.85-.18,1.49-.24,1.98,0,.03,0,.07,0,.1.19.17.41.33.64.49.44.3.96.57,1.52.7.56.14,1.15.15,1.7.1.14-.02.27-.04.41-.06.13-.02.27-.04.39-.07.25-.07.49-.11.71-.19.22-.07.41-.14.59-.2.17-.07.32-.13.44-.18.25-.1.39-.16.39-.16,0,0-.13.07-.37.2-.12.06-.26.14-.42.23-.17.08-.36.17-.57.27-.21.1-.45.18-.7.28-.12.05-.26.08-.39.12-.14.04-.27.08-.42.11-.58.12-1.22.18-1.86.1-.65-.07-1.27-.31-1.81-.59,0,0,0,0-.01,0,.18.41.45.79.71,1.16.65.9,1.3,1.82,2.13,2.56.52.46,1.11.86,1.76,1.11.06-.55.21-1.25.44-1.91.25-.7.6-1.35.9-1.8.15-.23.29-.41.38-.53.1-.12.15-.19.15-.19,0,0-.04.08-.11.22-.07.14-.17.34-.27.59-.21.49-.41,1.17-.51,1.86-.1.69-.1,1.38-.05,1.88,0,.05,0,.1.01.14.08.01.17.03.25.03,1.43.11,2.8-.59,3.94-1.47.63-.49,1.22-1.04,1.82-1.58-.56-.53-1.05-1.19-1.41-1.96-.22-.47-.37-.95-.48-1.42-.42.06-.85.11-1.28.14-.44.03-.91.05-1.26.32.01-.97.07-1.88-.14-2.82-.21-.95-.67-1.87-1.45-2.45.36-1.65.17-3.51-.69-4.97-.57-.97-1.38-1.78-2.33-2.37-.06-.02-.13-.05-.2-.07-.44-.14-1.07-.23-1.71-.22-.64,0-1.29.11-1.77.19-.48.09-.8.14-.8.14,0,0,.31-.1.78-.25.26-.08.58-.17.92-.25-.03-.01-.06-.03-.09-.05-.13-.08-.32-.19-.55-.3-.22-.13-.49-.26-.78-.4-.28-.14-.59-.28-.91-.4-.31-.13-.62-.25-.93-.35-.3-.11-.58-.2-.83-.26-.25-.08-.45-.13-.6-.17-.15-.04-.23-.07-.23-.07,0,0,.09,0,.24-.02.15,0,.37,0,.64,0,.26.02.57.07.89.13.32.08.66.19.99.31.32.15.64.31.92.47.28.18.53.36.73.53.2.18.35.33.46.44.04.04.07.08.09.11.25-.06.52-.11.79-.15.15-.02.3-.04.46-.05-.23-.04-.51-.1-.83-.23-.37-.15-.77-.38-1.15-.68-.38-.3-.74-.67-1.04-1.07-.6-.81-.99-1.72-1.25-2.4-.13-.34-.23-.63-.31-.83-.07-.2-.11-.31-.11-.31,0,0,.05.11.15.3.09.19.23.46.4.78.34.64.82,1.49,1.47,2.17.32.34.68.64,1.05.86.36.23.73.38,1.05.47.19.05.36.08.51.1.21-.04.41-.17.52-.36.09-.15.13-.35.29-.44.17-.1.41,0,.58-.11.19-.12.18-.39.15-.61.05.08.12.11.21.11s.18-.03.27-.08c.11-.05.19-.14.27-.23-.05-.15-.08-.3-.1-.42-.02-.18-.02-.29-.02-.29,0,0,.05.1.15.24.1.14.25.3.41.44.16.13.34.24.48.3.03.01.06.03.09.04.18-.19.27-.56.4-1.04.09-.36.23-.86.48-1.16-.21-.13-.45-.28-.71-.4-.74-.37-1.58-.55-1.58-.55,0,0,.21,0,.53.03.32.03.74.1,1.16.21.4.11.8.25,1.1.38.02,0,.04-.02.06-.02.96-.45,1.51-1.41,1.93-2.41,0,0,0,0,0,0-.35-.08-.85-.22-1.42-.48-.28-.14-.57-.31-.87-.52-.29-.21-.59-.46-.86-.74-.07-.08-.15-.16-.22-.25l-.17-.21s-.02-.02-.03-.02c0,.02,0,.03,0,.04h0s-.03.13-.03.13c-.02.1-.05.19-.07.29-.07.21-.16.42-.29.62-.13.2-.33.39-.56.49-.24.11-.54.11-.77.03-.24-.08-.42-.21-.58-.34-.31-.28-.55-.57-.76-.86-.21-.28-.4-.56-.58-.8-.33-.51-.62-.92-.86-1.18-.11-.14-.22-.23-.29-.29-.08-.06-.12-.09-.12-.09,0,0,.05.02.13.07.08.05.21.12.35.23.28.23.64.6,1.04,1.06.2.23.41.49.64.74.23.25.48.52.76.72.14.1.28.19.42.23.14.04.26.03.38-.03.25-.12.42-.43.52-.79.03-.08.05-.17.07-.25l.04-.15.06-.27.21-1.08c.22.37.44.73.67,1.08l.04.07.02.04v.02s.06.06.06.06l.09.12c.06.08.13.16.19.23.23.28.48.54.74.76.26.22.52.4.78.56.5.32.96.53,1.29.66,0,0,0,0,.01,0,.08-.2.16-.4.24-.6.44-1.16.6-2.62.03-3.73-.57-1.1-1.59-1.92-2.72-2.46-.99-.47-2.09-.74-3.19-.74-.35,0-.69.03-1.04.08-1.43.23-2.79.97-3.69,2.1-.44.55-.76,1.19-1.18,1.76-.92,1.26-2.3,2.18-3.82,2.54-.17.04-.35.06-.52.06-.86,0-1.74-.42-2.61-.5-.29-.02-.59-.04-.88-.04-.74,0-1.48.1-2.16.39.33.22.68.48.98.78.51.49.93,1.04,1.24,1.45,0,0,0,0,0,0,.44.17.89.37,1.33.59.5.28.98.59,1.41.9.42.33.8.65,1.11.94.15.15.29.29.4.42.12.13.22.24.3.33.15.19.24.3.24.3,0,0-.11-.09-.3-.24-.09-.08-.21-.17-.34-.28-.13-.11-.29-.22-.46-.34-.33-.26-.73-.53-1.17-.81-.43-.29-.91-.56-1.4-.82-.2-.11-.41-.22-.62-.32,0,0,0,0,0,0,0,0,0,0-.01-.01-.28-.14-.57-.27-.84-.39-.48-.21-.93-.39-1.33-.51-.2-.08-.38-.14-.54-.19-.16-.05-.3-.1-.42-.13-.24-.07-.37-.12-.37-.12,0,0,.14.01.39.03.12.01.27.03.44.06.17.02.36.06.57.1.41.09.87.22,1.37.38-.34-.35-.76-.76-1.23-1.11-.53-.41-1.13-.7-1.59-.86-.21-.07-.38-.12-.52-.15-.32-.04-.63-.08-.95-.11-.39-.05-.79-.09-1.19-.09-.09,0-.18,0-.27,0-.46.03-.91.13-1.35.26-.03,0-.05.02-.08.02-.68.39-1.27.93-1.77,1.53-.73.86-1.44,1.68-2,2.64.04.09.08.18.13.27.18.34.43.65.66.86.11.1.21.18.28.23.07.05.11.08.11.08,0,0-.05-.02-.13-.06-.08-.04-.2-.09-.33-.17-.27-.16-.6-.42-.87-.75-.14-.17-.26-.35-.36-.53-1.8,1.1-3.2,2.83-3.89,4.82-.02.06-.04.13-.07.19.34-.16.67-.3.93-.41.42-.17.7-.28.7-.28,0,0-.26.15-.65.37-.39.23-.9.54-1.38.88-.35.24-.68.5-.96.73-.22.49-.37,1-.55,1.51-.27-.06-.65-.16-1.07-.36-.15-.07-.33-.16-.52-.27.2-.24.4-.47.62-.68.12-.12.23-.23.35-.34.31-.3.6-.58.81-.88.21-.3.36-.68.52-1.08l.05-.12c.42-1.03.96-2.22,1.79-3.22.75-.9,1.67-1.54,2.65-1.85.12-.04.24-.06.33-.08.03-.05.05-.11.08-.15.34-.6.62-1.05.93-1.46.57-.76,1.22-1.34,1.91-1.72.55-.31,1.13-.49,1.57-.61.41-.12.95-.25,1.54-.29.1,0,.21,0,.32,0,.45,0,.88.05,1.29.1l.94.11.31.04c.08,0,.16.02.25.04.07.01.13.02.19.03.02-.01.05-.02.08-.04.74-.33,1.58-.48,2.58-.48.3,0,.61.01.96.04.48.04.92.16,1.35.27.43.11.84.22,1.19.22.11,0,.21-.01.31-.03,1.3-.31,2.51-1.11,3.3-2.19.17-.23.32-.47.49-.73.22-.35.44-.7.72-1.05,1.01-1.27,2.56-2.16,4.25-2.43.39-.06.78-.09,1.18-.09,1.2,0,2.44.28,3.58.82,1,.47,2.35,1.35,3.13,2.86.62,1.19.62,2.86.01,4.46-.55,1.45-1.21,2.92-2.67,3.61-.04.02-.08.03-.11.05-.04.02-.1.04-.13.06-.05.07-.16.26-.3.82-.16.63-.3,1.17-.71,1.54-.13.12-.37.26-.72.26-.24,0-.52-.07-.78-.2-.01,0-.02,0-.03.01-.12.24-.29.4-.45.5-.19.11-.37.16-.52.18,0,.02-.02.03-.03.05-.04.07-.08.14-.13.2,1.45.66,2.7,1.77,3.5,3.14.85,1.45,1.17,3.28.89,5.09.64.65,1.12,1.55,1.35,2.59.14.63.18,1.23.18,1.82.08,0,.17-.01.24-.02h.04c.41-.03.81-.07,1.21-.13-.14-2.03.72-3.92,2.37-4.8.06-.03,2.39-1.2,2.45-1.23.14-.07.28-.12.43-.17.05-.02.1-.03.15-.04.1-.03.19-.06.29-.08.06-.01.12-.02.18-.03.09-.02.18-.03.27-.04.06,0,.13,0,.2-.01.09,0,.17-.01.26-.01,0,0,.02,0,.02,0,.08,0,.15,0,.23.01.06,0,.13,0,.19,0,.09,0,.18.02.26.04.06,0,.12.01.18.03.1.02.19.04.29.07.05.01.1.02.15.04.14.04.29.09.43.14.27-1.4,1.06-2.6,2.28-3.25.06-.03,2.39-1.2,2.45-1.23.15-.07.3-.13.45-.18.05-.02.1-.03.15-.04.1-.03.2-.06.31-.08.06-.01.12-.02.19-.03.09-.02.19-.03.28-.04.07,0,.13,0,.2-.01.07,0,.15-.01.22-.01.02,0,.04,0,.06,0,.04,0,.08,0,.13,0,.11,0,.21.01.32.02.05,0,.09.01.14.02.12.02.24.04.35.06.03,0,.06.01.08.02.14.03.29.08.43.12.04.01.08.03.11.04.11.04.21.08.32.13.05.02.09.04.14.06.11.05.21.1.31.16.03.02.07.04.1.06.13.08.27.16.39.25.03.02.06.04.09.06.1.07.2.15.3.23.04.03.08.07.12.1.09.08.18.16.26.24.03.03.07.06.1.1.11.12.23.24.33.36.02.02.03.04.05.06.09.11.18.23.26.34.03.04.06.09.09.13.07.1.14.21.2.32.03.04.05.09.08.13.09.15.17.31.24.47,1.34,2.85.46,6.08-1.96,7.22-.05.02-2.36,1.17-2.4,1.19-.13.06-.27.11-.41.15-.05.01-.09.02-.14.03-.09.02-.18.05-.28.07-.06.01-.11.02-.17.02-.08.01-.17.03-.25.04-.06,0-.12,0-.18,0-.08,0-.15.01-.23.01,0,0,0,0-.01,0-.08,0-.16,0-.25-.01-.06,0-.12,0-.18,0-.09,0-.17-.02-.26-.04-.06,0-.11-.01-.17-.02-.1-.02-.19-.04-.29-.07-.05-.01-.09-.02-.14-.03-.14-.04-.28-.09-.42-.14-.29,1.47-1.15,2.72-2.48,3.35-.05.02-2.36,1.17-2.4,1.19-.14.06-.29.11-.44.16-.05.01-.1.02-.15.04-.1.03-.2.05-.3.07-.06.01-.12.02-.17.03-.09.01-.19.02-.28.03-.06,0-.12,0-.18,0-.04,0-.09,0-.13,0-.04,0-.07,0-.11,0-.1,0-.21,0-.31-.02-.07,0-.14-.01-.21-.02-.11-.01-.21-.04-.32-.06-.07-.01-.13-.03-.2-.04-.12-.03-.23-.07-.34-.1-.06-.02-.11-.03-.17-.05-.17-.06-.33-.13-.5-.21-.64.49-1.22.97-1.6,1.57-.6.95-1.67,1.32-2.53,1.54l-.2.05c-.62.15-1.2.3-1.55.63-.07.06-.14.15-.22.23-.23.25-.51.57-.94.77-.25.11-.51.17-.79.17-.69,0-1.42-.36-1.96-.98-.22-.24-.39-.49-.56-.74-.19-.27-.37-.53-.57-.71-.15-.13-.34-.25-.54-.38-.11-.07-.23-.15-.34-.22-1.76-1.21-2.63-3.08-3.11-4.78-.14.11-.29.22-.45.31.11.96.07,1.88.03,2.77-.05,1-.09,1.94.07,2.88.09.5.18,1,.27,1.5.34,1.92.69,3.9,1.15,5.84.13.53.26,1.06.39,1.59,1.05,4.26,2.13,8.67,1.99,13.19-.04,1.22-.17,2.43-.35,3.61.32-.15.64-.31.96-.47.14-1.02.24-2.06.28-3.11.15-4.65-.95-9.12-2.02-13.44-.13-.53-.26-1.06-.39-1.58-.46-1.9-.81-3.88-1.14-5.78-.09-.51-.18-1.01-.27-1.51-.14-.8-.11-1.64-.07-2.53.58.92,1.3,1.66,2.15,2.24.12.08.24.16.37.24.17.11.33.21.42.29.12.11.27.33.43.55.17.25.37.54.62.82.71.8,1.69,1.27,2.63,1.27.4,0,.79-.08,1.15-.24.61-.27.99-.7,1.24-.99.06-.07.12-.14.16-.17.19-.17.7-.3,1.16-.42l.21-.05c.95-.24,2.3-.71,3.07-1.93.23-.37.59-.7.98-1.02.66.25,1.35.38,2.02.38s1.37-.14,1.99-.4c.04-.02.06-.02,1.66-.82.41-.2.74-.37.78-.39,1.25-.59,2.21-1.67,2.71-3.04.37.07.73.11,1.1.11.69,0,1.36-.14,1.99-.4.04-.02.06-.02,1.66-.82.41-.2.75-.37.79-.39.8-.38,1.47-.95,1.98-1.67.4-1.65.72-3.34.95-5.04-.12-.57-.3-1.14-.56-1.68-1.14-2.43-3.43-4.01-5.81-4.01ZM216.62,262.63h0c0-.08,0-.15.01-.22.06.06.13.14.21.27.16.23.28.5.36.78.04.14.07.29.08.44,0,.09,0,.17,0,.23-.08-.03-.22-.09-.42-.23-.19-.13-.37-.28-.55-.45.18-.16.29-.4.3-.66v-.16ZM233.48,266.23c0-.3.39-.54.88-.54s.88.24.88.54-.39.54-.88.54-.88-.24-.88-.54ZM242.77,262.75c.12-.28.21-.51.27-.68.07-.16.12-.26.12-.26,0,0,0,.1.01.28,0,.18-.01.43-.03.74-.04.3-.09.65-.15,1.03-.09.37-.19.76-.3,1.15-.14.38-.29.75-.44,1.1-.17.34-.34.65-.49.91-.17.25-.31.46-.42.61-.11.14-.18.22-.18.22,0,0,.02-.1.06-.28.05-.17.12-.41.19-.7.09-.28.19-.62.29-.97.12-.35.24-.72.35-1.1.14-.37.27-.74.38-1.09.13-.35.25-.67.35-.95ZM240.08,283.1s.06.07.08.09c.01.02.02.03.02.03,0,0-.05-.03-.14-.05-.08-.02-.21-.02-.35.02-.14.02-.32.07-.47.14-.15.06-.3.17-.38.3-.1.12-.13.26-.1.4.02.15.1.27.21.34.1.09.23.13.31.13.09.02.15.01.15.01,0,0-.04.04-.14.08-.09.03-.25.06-.43,0-.18-.06-.38-.22-.47-.46-.09-.24-.05-.55.11-.78.17-.22.4-.34.62-.4.23-.04.42-.04.59-.02.17.03.31.09.39.15ZM239.93,270.58c.13-.31.2-.49.2-.49,0,0-.03.19-.07.52-.03.16-.06.36-.08.59-.03.23-.06.48-.07.77-.07.56-.1,1.21-.11,1.92-.03.7-.03,1.45-.01,2.2,0,.75,0,1.51.01,2.21,0,.71-.02,1.37-.03,1.94-.03.57-.06,1.05-.09,1.38-.04.33-.06.52-.06.52,0,0-.03-.19-.07-.52-.03-.33-.09-.8-.16-1.37-.05-.57-.11-1.23-.18-1.93-.04-.71-.08-1.47-.1-2.23.01-.76.05-1.53.1-2.24.09-.71.19-1.38.32-1.94.07-.28.14-.53.21-.76.07-.22.13-.42.19-.57ZM234.53,285.71c-.19-.4-.39-.87-.6-1.39-.19-.52-.38-1.08-.56-1.64-.15-.57-.3-1.14-.41-1.69-.1-.55-.18-1.05-.24-1.49-.05-.44-.08-.81-.09-1.07,0-.26-.01-.41-.01-.41,0,0,.04.14.1.39.06.25.14.61.25,1.03.09.43.22.92.37,1.45.13.53.29,1.09.46,1.65.16.56.33,1.12.5,1.64.16.52.32,1.01.47,1.42.13.42.26.76.35,1.01.08.24.13.38.13.38,0,0-.08-.13-.21-.35-.12-.23-.3-.55-.5-.95ZM249.16,254.3c.07-.06.14-.1.19-.13.05-.02.08-.04.08-.04,0,0-.02.03-.05.07-.03.04-.07.11-.12.18-.05.07-.09.17-.14.26-.05.09-.09.2-.12.31-.04.11-.07.22-.08.32-.01.1-.04.21-.04.29,0,.09-.01.16,0,.22,0,.05,0,.09,0,.09,0,0-.02-.03-.04-.08-.02-.05-.06-.12-.08-.21-.02-.09-.04-.2-.03-.32,0-.12.03-.25.06-.37.05-.12.1-.24.17-.34.07-.1.15-.18.22-.24ZM247.74,271.37c.26.38.28.82.04.98-.24.16-.64-.02-.89-.41-.26-.38-.28-.82-.04-.98s.64.02.89.41ZM250.02,253.92s-.01.06-.01.06c0,0,0-.02-.01-.05,0-.03-.03-.08-.06-.14-.06-.11-.2-.25-.38-.26-.09-.01-.19,0-.27.05-.08.04-.15.12-.2.23-.06.1-.11.24-.18.38-.07.14-.14.28-.21.41-.16.26-.28.51-.32.75-.06.24-.03.48.09.63.1.17.27.27.39.29.12.04.21.01.21.02,0,0-.06.05-.21.07-.14.01-.37-.03-.57-.21-.2-.19-.3-.52-.28-.85.03-.33.17-.65.32-.92.08-.13.16-.26.23-.39.07-.12.14-.26.23-.4.1-.13.25-.26.41-.31.16-.05.32-.04.46,0,.27.11.37.34.4.47.01.07,0,.13,0,.17ZM226.47,271.24c.04.67.14,1.31.29,1.91.08.3.16.59.25.87.14.46.27.89.31,1.26.08.61.04,1.24-.07,1.9-.27-.75-.59-1.48-.96-2.18-.06-1.07-.37-2.14-.88-3.04-.04-.07-.08-.12-.12-.19.12-.1.25-.21.38-.34.27-.06.53-.12.8-.2Z"/>
      <path class="st7" d="M248.03,301.9c.24-.11.46-.22.65-.32.19-.1.35-.19.49-.27.27-.15.41-.25.41-.25,0,0-.17.04-.47.13-.29.08-.71.2-1.21.34-.25.07-.52.14-.81.22-.29.08-.59.15-.9.24-.31.08-.64.16-.97.24-.33.09-.66.16-1,.23-.34.07-.67.15-1,.21-.33.07-.66.13-.98.19-.64.11-1.23.22-1.75.3-.51.08-.94.15-1.25.2-.3.05-.48.08-.48.08,0,0,.17.02.48.05.15.02.34.03.55.04.21.01.46.02.72.02.53,0,1.14-.03,1.8-.1.33-.04.67-.07,1.01-.14.34-.06.69-.13,1.03-.2.34-.09.69-.16,1.02-.26.34-.09.66-.2.97-.3.31-.11.61-.22.89-.33.28-.11.54-.22.78-.34Z"/>
      <path class="st7" d="M247.55,310.55c-.14-.79-.43-2.36-.84-3.9-.34-1.3-.76-2.57-1.04-3.38-.58.19-1.17.36-1.76.51-1.45.36-2.94.6-4.44.69.63,3.42.85,4.68,2.43,7.95.6-.16,1.19-.33,1.78-.51,0-.01.01-.03.02-.04.05-.11.08-.22.11-.32.03-.1.06-.18.07-.25.04-.14.06-.22.06-.22,0,0,0,.08,0,.23,0,.07,0,.16,0,.27,0,.08-.01.17-.02.27,1.24-.39,2.45-.82,3.65-1.29Z"/>
      <path class="st7" d="M249.83,309.59c.23-1.36.4-2.72.44-4.1.04-1.3-.02-2.59-.16-3.87-.21.08-.51.19-.86.32l-.21,4.31-.52-4.04c-.5.19-1.02.39-1.44.55-.15.06-.3.11-.45.17.19.86.46,2.23.63,3.61.22,1.59.32,3.17.36,3.98.75-.3,1.49-.61,2.21-.94Z"/>
      <path class="st7" d="M241.9,290.1c-.29,0-.59-.02-.91-.03-.31-.01-.64-.03-.97-.04-.33,0-.67-.03-1-.05-.34-.02-.67-.03-1-.06-.33-.02-.65-.04-.97-.06-.63-.04-1.22-.08-1.72-.12-.51-.03-.93-.06-1.23-.08-.3-.02-.47-.02-.47-.02,0,0,.16.06.45.15.28.09.69.21,1.19.33.5.12,1.09.23,1.72.32.32.04.64.09.98.12.33.03.68.05,1.02.08.34,0,.68.02,1.02.02.34,0,.67-.01.99-.02.32-.01.63-.03.92-.06.29-.02.57-.05.82-.09.51-.06.93-.14,1.22-.2.29-.06.46-.1.46-.1,0,0-.17-.01-.47-.02-.3,0-.72-.02-1.23-.04-.25,0-.53-.02-.82-.02Z"/>
      <path class="st7" d="M249.2,298.28c-.02-.22-.04-.46-.07-.72-.03-.25-.05-.52-.09-.8-.04-.28-.07-.56-.12-.85-.05-.29-.09-.58-.14-.88-.06-.29-.12-.59-.17-.87-.06-.29-.14-.57-.2-.84-.14-.54-.3-1.05-.46-1.47-.15-.42-.31-.77-.43-1-.12-.24-.19-.37-.19-.37,0,0,.02.15.06.41.04.26.11.62.18,1.06.07.44.16.95.25,1.49.05.27.09.56.14.84.05.29.1.58.15.87.06.29.11.58.16.87.05.29.12.57.17.84.06.27.12.54.18.78.06.25.12.48.19.7.12.43.24.79.33,1.04.09.25.15.39.15.39,0,0,0-.15-.02-.41-.02-.26-.04-.63-.08-1.08Z"/>
      <path class="st7" d="M230.86,285.26c-.37-.78-.82-1.52-1.21-2.05-.02-.03-.04-.06-.07-.09-.31,1.28-.58,2.57-.82,3.86.96.1,1.92.26,2.88.44-.16-.61-.43-1.39-.79-2.15Z"/>
      <path class="st7" d="M269.69,266.07c-.1.05-.15.07-.15.07,0,0,.06-.02.16-.05.1-.03.25-.08.45-.11.1-.02.21-.04.33-.04.12,0,.25-.02.39,0,.14.01.28.01.44.05.08.01.15.03.23.04.08.02.16.04.24.07.33.09.66.24,1,.42.16.1.34.2.5.33.08.06.17.12.25.18.08.07.16.14.24.21.16.14.3.3.45.45.14.17.29.33.41.51.06.09.13.18.19.27l.17.28c.12.18.22.41.32.6.18.41.35.83.45,1.26.06.21.09.43.13.64.02.21.06.43.06.64,0,.11,0,.21,0,.31,0,.1-.01.21-.01.31,0,.2-.04.4-.07.59-.08.38-.17.73-.31,1.04-.04.08-.07.15-.1.23-.04.07-.08.14-.12.21-.07.14-.16.25-.24.37-.08.12-.17.2-.25.29-.08.09-.16.16-.24.22-.15.13-.29.22-.38.28-.09.06-.14.09-.14.09,0,0,.05-.02.15-.07.1-.05.25-.1.42-.23.09-.06.19-.12.28-.2.09-.08.2-.16.3-.28.1-.11.21-.22.3-.36.05-.07.1-.14.14-.21.04-.07.08-.15.13-.23.18-.31.31-.68.41-1.08.09-.4.15-.84.14-1.29,0-.45-.05-.92-.17-1.37-.1-.46-.28-.91-.46-1.35-.12-.22-.2-.42-.34-.63l-.19-.31c-.07-.1-.14-.19-.21-.29-.28-.38-.61-.71-.95-1.01-.34-.3-.72-.52-1.08-.71-.37-.18-.74-.31-1.1-.38-.09-.02-.17-.04-.26-.05-.09,0-.17-.01-.25-.02-.16-.02-.32,0-.46,0-.15,0-.28.03-.4.05-.12.02-.23.05-.33.08-.2.05-.34.13-.44.18Z"/>
      <path class="st7" d="M264.82,269.06c.09-.01.18-.03.28-.05.1,0,.22-.01.34-.02.24,0,.51.02.8.08.14.03.29.08.44.12.15.06.3.11.45.18.3.15.61.32.9.54.3.21.57.48.84.75.13.14.25.29.38.44.11.16.24.31.34.48.1.17.21.32.3.5l.14.27c.04.07.08.17.12.26.15.35.29.71.38,1.07.09.36.16.71.19,1.04.03.34.04.66.02.95-.02.3-.06.57-.11.8-.05.24-.11.44-.17.61-.06.16-.11.29-.15.38-.04.09-.06.13-.06.13,0,0,.03-.04.08-.12.06-.08.13-.19.21-.35.08-.16.17-.36.26-.6.08-.24.16-.51.2-.82.05-.31.07-.65.06-1,0-.36-.06-.73-.14-1.11-.08-.38-.2-.77-.36-1.15-.04-.1-.07-.18-.13-.29l-.14-.27c-.08-.18-.21-.36-.31-.54-.11-.18-.25-.34-.37-.51-.14-.16-.27-.32-.41-.47-.15-.14-.29-.29-.45-.41-.08-.06-.16-.13-.23-.19-.08-.06-.16-.11-.24-.17-.32-.23-.67-.39-1-.52-.17-.06-.34-.11-.5-.16-.17-.03-.33-.07-.48-.08-.16,0-.31-.03-.45-.03-.14,0-.28,0-.4.03-.12.02-.24.04-.35.06-.11.03-.2.06-.29.09-.17.05-.29.13-.38.16-.09.04-.13.06-.13.06,0,0,.05-.01.14-.04.09-.02.22-.08.39-.1Z"/>
      <path class="st7" d="M261.45,270.54c-.1.05-.15.07-.15.07,0,0,.06-.02.16-.05.1-.03.25-.08.45-.11.1-.02.21-.04.33-.04.12,0,.25-.02.39,0,.14.01.29.01.44.05.08.01.15.03.23.04.08.02.16.04.24.07.33.09.66.24,1,.42.16.1.34.2.5.33.08.06.17.12.25.18.08.07.16.14.24.21.16.14.3.3.45.45.14.17.29.33.41.51.06.09.13.18.19.27l.17.28c.12.18.22.41.32.6.18.41.35.83.45,1.26.06.21.09.43.13.64.03.21.06.43.06.64,0,.11,0,.21,0,.31,0,.1-.01.21-.01.31,0,.2-.04.4-.07.59-.08.38-.17.73-.31,1.04-.04.08-.07.15-.1.23-.04.07-.08.14-.12.21-.07.14-.16.25-.24.37-.08.12-.17.2-.25.29-.08.09-.16.16-.24.22-.15.13-.29.22-.38.28-.09.06-.14.09-.14.09,0,0,.05-.02.15-.07.1-.05.25-.1.42-.23.09-.06.19-.12.28-.2.09-.08.2-.16.3-.28.1-.11.21-.22.3-.36.05-.07.1-.14.14-.21.04-.07.08-.15.13-.23.18-.31.31-.68.41-1.08.09-.4.15-.84.14-1.29,0-.45-.05-.92-.17-1.37-.1-.46-.28-.91-.46-1.35-.12-.22-.2-.42-.34-.63l-.19-.31c-.07-.1-.14-.19-.21-.29-.28-.38-.61-.71-.95-1.01-.34-.3-.72-.52-1.08-.71-.37-.18-.74-.31-1.1-.38-.09-.02-.17-.04-.26-.05-.09,0-.17-.01-.25-.02-.16-.02-.32,0-.46,0-.15,0-.28.03-.4.05-.12.02-.23.05-.33.08-.2.05-.34.13-.44.18Z"/>
      <path class="st7" d="M273.33,264.41c-.11.03-.2.06-.29.09-.17.05-.29.13-.38.16-.09.04-.13.06-.13.06,0,0,.05-.01.14-.04.09-.02.22-.08.39-.1.09-.01.18-.03.28-.05.1,0,.22-.01.34-.02.24,0,.51.03.8.08.14.03.29.08.44.12.15.06.3.11.45.18.3.15.61.32.9.54.3.21.57.48.84.75.13.14.25.29.38.44.11.16.24.31.34.48.1.17.21.32.3.5l.14.27c.04.07.08.17.12.26.15.35.29.71.38,1.07.09.36.16.71.19,1.04.03.34.04.66.02.95-.02.3-.06.57-.11.8-.05.24-.11.44-.17.61-.06.16-.11.29-.15.38-.04.09-.06.13-.06.13,0,0,.03-.04.08-.12.06-.08.13-.19.21-.35.08-.16.17-.36.26-.6.08-.24.16-.51.2-.82.05-.31.07-.65.06-1,0-.36-.06-.73-.14-1.11-.08-.38-.2-.77-.36-1.15-.04-.1-.07-.18-.13-.29l-.14-.27c-.08-.18-.21-.36-.31-.54-.11-.18-.25-.34-.37-.51-.14-.16-.27-.32-.41-.47-.15-.14-.29-.29-.45-.41-.08-.06-.16-.13-.23-.19-.08-.06-.16-.11-.24-.17-.32-.23-.67-.39-1-.52-.17-.06-.34-.11-.5-.16-.17-.03-.33-.07-.48-.08-.16,0-.31-.03-.45-.03-.14,0-.28,0-.4.03-.12.02-.24.04-.35.06Z"/>
      <path class="st7" d="M270.29,271.14c.05.07.1.13.14.2.26.39.48.82.65,1.26.09.22.16.45.21.69.04.15.03.47.25.48.07,0,.11-.06.18-.07.02,0,.04,0,.06,0,0-.07-.02-.14-.03-.22-.02-.2-.07-.43-.12-.68-.05-.25-.12-.51-.21-.76-.08-.26-.18-.51-.28-.74-.11-.23-.2-.44-.31-.62-.1-.18-.18-.33-.25-.43-.06-.1-.1-.16-.1-.16,0,0,.05.05.13.13.08.09.2.21.32.38.12.17.26.37.38.6.12.23.23.49.32.75.08.27.14.54.19.79.04.26.05.5.05.71,0,.09,0,.17,0,.24.02,0,.03,0,.05,0,.15,0,.31-.09.37-.23.02-.04.03-.1.07-.13.03-.03.07-.03.11-.04,0-.03,0-.06,0-.09,0-.18-.04-.38-.07-.6-.03-.22-.07-.45-.13-.67-.05-.23-.11-.45-.18-.66-.07-.21-.14-.4-.21-.57-.07-.16-.12-.3-.17-.4-.04-.1-.07-.15-.07-.15,0,0,.04.05.1.13.06.08.16.2.25.36.09.16.19.34.28.55.08.21.16.44.22.68.05.24.08.48.11.7.02.23,0,.44,0,.62,0,.02,0,.04,0,.06.06-.02.1-.06.14-.11.18-.21.24-.51.23-.79-.01-.28-.09-.55-.16-.82-.07-.28-.09-.54-.14-.82-.04-.26-.16-.54-.29-.77-.16-.27-.5-.43-.81-.47-.29-.05-.58-.08-.87-.09-.14,0-.29.03-.45.07-.22.06-.44.16-.58.26-.15.1-.24.18-.24.18,0,0,.05-.11.17-.26.09-.12.22-.26.37-.38-.08-.29-.29-.53-.59-.55-.2-.01-.39.08-.53.22-.09.09-.15.21-.18.34-.03.11-.03.16,0,.21.62.42,1.18.98,1.63,1.65Z"/>
      <path class="st7" d="M223.75,301.72c.06-.02.15-.04.26-.07.27-.07.64-.17.98-.25.28-.07.54-.14.71-.18.13-.03.21-.05.22-.06.05,0,.11-.01.16-.01,0,0,.01,0,.02,0,.07,0,.15,0,.22.02-.06-.17-.13-.34-.2-.51-.18-.43-.36-.86-.55-1.3-.55-1.3-1.14-2.61-1.81-3.85-.09-.16-.18-.32-.26-.48-.08-.15-.17-.3-.25-.46-.25-.46-.5-.94-.7-1.44-.24-.59-.4-1.2-.54-1.79-.05-.2-.09-.4-.14-.59l-.17-.75-.17-.75-.13-.58c-.03-.15-.07-.29-.1-.44-.08-.32-.15-.65-.22-.98-.07-.33-.14-.67-.2-1-.03-.17-.06-.33-.08-.49-.06.11-.12.22-.17.33-.04.08-.08.15-.12.22-.11.21-.21.41-.31.62-.2.42-.37.85-.53,1.26-.08.2-.16.4-.23.6-.07.18-.13.37-.18.55-.07.25-.12.49-.16.73,0,.04-.01.08-.02.12-.21,1.45.1,2.85.63,4.34.16.45.34.92.53,1.39l.38.96.38.96.38.96.38.96c.04.11.09.22.13.33.31.77.61,1.55.84,2.37.06-.09.12-.18.19-.26.13-.16.28-.28.45-.36.08-.04.17-.07.26-.09,0,0,.04-.01.11-.03ZM221.82,297.52l-.77-1.92c-.68-1.7-1.19-3.14-1.17-4.58.34-.18.64-.43.86-.76.02-.04.04-.07.07-.11l.18.8c.19.82.38,1.66.72,2.52.29.73.65,1.37,1,2,.09.16.18.32.26.47.06.11.12.23.18.34-.24.91-.48,1.84-.71,2.78l-.62-1.54ZM220.24,289.17c-.02.14-.07.29-.14.43.04-.14.09-.29.14-.43ZM223.75,297.49c.12.26.25.52.37.79-.03-.01-.04-.02-.04-.02,0,0,.02.02.05.05.32.72.63,1.44.93,2.16-.25.06-.6.15-1.07.28-.3.08-.53.14-.56.15-.08.02-.16.04-.24.07-.05-.15-.11-.29-.16-.43.22-1.03.47-2.04.73-3.04Z"/>
      <path class="st7" d="M212.62,308.34c-.08-.37-.17-.74-.27-1.12-.1-.38-.21-.77-.33-1.17-.11.39-.24.78-.37,1.17-.4,1.16-.88,2.3-1.43,3.39-.07.14-.15.27-.22.4.28.1.56.2.85.3.05-.1.11-.2.16-.3.31-.62.6-1.25.87-1.89.13.67.25,1.35.36,2.02.04.21.07.44.11.67.32.1.63.19.95.29-.06-.37-.13-.74-.19-1.1-.15-.88-.3-1.78-.49-2.66Z"/>
      <path class="st7" d="M204.26,274.58c-.03.37-.06.73-.07,1.1-.02.36-.02.73,0,1.09.21-.19.44-.4.69-.58.04-.03.09-.06.13-.1.05-.13.09-.27.14-.4-.02,0-.03.01-.05.02-.1.04-.2.07-.28.11-.08.03-.16.05-.2.07l-.08.02s0,0,.02-.02c.01,0,.03-.02.05-.04.04-.03.1-.09.17-.14.08-.05.16-.11.26-.16.06-.03.13-.06.2-.1.37-1.05.73-2.1,1.1-3.15.13-.36.48-1.16.76-1.58-.03-.02-.05-.05-.07-.07-.3.07-.6.17-.88.3-.28.14-.53.32-.75.53-.22.21-.42.45-.57.72-.41.72-.51,1.56-.57,2.37Z"/>
      <path class="st7" d="M196.8,284.43s-.04-.03-.11-.07c-.07-.05-.18-.12-.3-.22-.03-.03-.06-.05-.1-.08-.03-.03-.07-.06-.1-.1-.06-.07-.14-.14-.2-.23-.06-.09-.14-.18-.19-.29-.03-.05-.06-.11-.09-.16-.03-.06-.05-.12-.08-.18-.11-.24-.19-.53-.25-.83-.05-.3-.07-.63-.06-.96,0-.17.03-.34.05-.51.03-.17.06-.34.11-.51.08-.34.21-.68.36-1,.08-.15.16-.34.25-.48l.14-.22c.05-.07.1-.14.15-.22.1-.15.22-.27.33-.41.12-.12.23-.25.36-.36.06-.05.13-.11.19-.16.06-.05.13-.1.19-.15.13-.1.26-.18.39-.26.27-.14.54-.27.8-.34.06-.02.13-.04.19-.05.06-.01.13-.02.19-.03.12-.03.24-.03.35-.04.11-.01.21,0,.31,0,.05,0,.09,0,.14.01s.08.02.12.02c.16.02.28.06.36.09.04.01.07.02.09.03.02,0,.03.01.03.01,0,0-.01,0-.03-.01-.02,0-.05-.02-.09-.04-.08-.04-.19-.1-.35-.14-.08-.02-.17-.05-.26-.07-.1-.01-.2-.04-.32-.04-.12,0-.24-.02-.37,0-.06,0-.13.01-.2.02-.07.01-.14.03-.21.04-.28.05-.58.16-.87.3-.29.15-.59.33-.86.57-.27.23-.54.5-.76.8-.06.08-.11.15-.17.23l-.15.24c-.11.17-.17.32-.27.5-.15.35-.29.71-.37,1.08-.09.36-.13.74-.13,1.09,0,.36.04.7.11,1.02.08.32.19.61.33.86.03.06.07.12.1.18.04.06.08.11.12.16.04.05.08.1.12.15.04.05.08.09.12.13.07.09.16.15.24.22.04.03.07.06.11.09.04.03.07.05.11.07.13.1.25.14.33.18.08.04.12.06.12.06Z"/>
      <path class="st7" d="M206.6,269.13c.06,0,.12,0,.18-.02-.02.05-.05.12-.05.18,0,.03,0,.06,0,.09s.02.05.04.07c.09.07.2.09.31.11.11.01.22.02.33.06.09.04.16.1.21.17.04.06.07.12.1.19h.01s0,.03.04.09c0,0,0,0,0,.01.05.07.2.18.42.19.22.02.55-.09.88-.32.34-.23.69-.51,1.03-.81.67-.61,1.23-1.33,1.6-1.91.19-.29.32-.54.41-.72.09-.18.14-.28.14-.28,0,0,0,0,0,.02-.01.04-.05.14-.1.28-.04.09-.08.21-.13.34-.05.13-.11.28-.19.44-.22.48-.54,1.05-.94,1.62-.13.19-.28.38-.43.56-.31.36-.63.7-.97,1.01-.22.19-.47.37-.75.49l2.1.5-2.98-.16c-.08.15-.13.3-.18.47-.02.08-.04.17-.05.26-.01.09-.02.19-.03.29-.04.78.17,1.56.39,2.31.15.51.32,1.01.56,1.49.08.15.16.3.25.44-.17-.35-.33-.74-.47-1.14-.05-.16-.1-.32-.15-.48-.09-.32-.16-.62-.21-.9-.03-.14-.05-.27-.06-.39-.04-.24-.05-.45-.06-.59,0-.07,0-.13-.01-.17,0-.04,0-.06,0-.06,0,0,.02.08.06.22.04.14.09.33.17.56.15.46.41,1.05.72,1.61.08.14.16.27.24.41.17.26.34.51.5.72.08.11.16.21.24.29.1.13.2.23.28.32.07-.04.14-.09.2-.12.27-.14.53-.3.79-.45.52-.32,1.02-.65,1.53-.99.96-.64,1.92-1.3,2.74-2.1.85-.82,1.5-1.82,2.39-2.61.01-.01.03-.03.05-.04-.57-.02-1.28,0-1.98.06-.82.07-1.64.2-2.25.32-.23.04-.43.08-.59.12-.11.02-.2.04-.27.06-.07.02-.12.03-.14.03-.01,0-.02,0-.02,0,0,0,.22-.09.58-.22.12-.04.25-.09.4-.14.15-.05.31-.11.48-.16.34-.11.72-.23,1.12-.34.2-.05.4-.11.61-.16.2-.05.41-.09.61-.13.41-.08.81-.15,1.17-.2.18-.02.35-.04.51-.06.04,0,.08,0,.12-.01-1.81-.36-3.71-.24-5.5.24-.8.21-1.62.5-2.44.42.49-.98,1.27-1.79,1.79-2.75.41-.76.64-1.6.77-2.45,0-.03,0-.07.01-.12,0-.09.01-.21.01-.34,0-.32.02-.73.09-1.06-.11-.46-.17-.93-.2-1.41-.02.06-.04.13-.06.19-.06.18-.14.36-.2.53-.14.34-.27.66-.4.92-.03.07-.06.13-.09.19-.06.12-.11.23-.16.32-.02.05-.05.09-.07.13-.08.15-.14.24-.14.24,0,0,.02-.16.06-.41.02-.1.04-.22.07-.35.01-.07.03-.14.04-.21.06-.29.14-.62.24-.98.05-.18.1-.36.16-.54.06-.19.11-.35.13-.51.02-.16,0-.27-.06-.35-.06-.07-.18-.14-.31-.14-.13,0-.29.02-.44.06-.15.05-.3.1-.42.15-.18.08-.32.19-.4.3-.03.04-.05.08-.07.11-.04.07-.05.14-.06.18,0,.05,0,.07,0,.07,0,0-.01-.02-.02-.07-.01-.05-.03-.12-.02-.21,0-.09.04-.21.11-.32.07-.12.17-.23.3-.33.13-.1.27-.18.43-.26.16-.08.35-.16.59-.16.06,0,.12,0,.18.01-.18-.09-.38-.13-.58-.1-.43.07-.75.42-1.1.7.05-.12.1-.24.15-.35.19-.42.39-.84.56-1.15.04-.08.08-.15.11-.21.07-.13.12-.22.14-.27.01-.02.02-.04.02-.04,0,0-.04.05-.1.13-.19.24-.61.8-.99,1.4-.19.29-.37.58-.52.84-.05.01-.1.02-.16.02-.26,0-.51-.11-.75-.2,0,0-.02,0-.02,0l1.19-2.54-1.6,2.4c-.22-.07-.44-.12-.66-.16.05-.14.11-.29.17-.44.16-.41.33-.81.47-1.11.03-.08.07-.14.09-.2.08-.18.14-.29.14-.29,0,0-.07.1-.19.27-.04.06-.08.12-.13.19-.18.27-.43.64-.65,1.03-.1.17-.2.34-.3.51-.21-.02-.42-.04-.62-.04l.74-1.68-1.23,1.69c-.38.02-.76.07-1.14.14.01-.08.02-.17.04-.26.01-.09.03-.19.05-.3.04-.21.09-.45.16-.69.03-.12.07-.24.11-.36.15-.49.34-.96.51-1.31.12-.26.23-.45.27-.53.01-.03.02-.04.02-.04,0,0-.09.11-.22.31-.05.06-.1.14-.15.22-.22.32-.48.77-.71,1.25-.22.47-.41.97-.53,1.35-.07.21-.11.38-.14.49-.62.13-1.25.29-1.89.43,0-.02-.01-.04-.02-.07-.02-.09-.04-.18-.05-.27-.08-.48-.11-1.05-.05-1.64.01-.12.03-.24.05-.36.02-.12.05-.24.08-.36.06-.24.13-.47.22-.69.09-.22.18-.44.29-.64s.22-.39.34-.57c.12-.17.24-.33.36-.48.06-.07.12-.14.18-.2.11-.12.22-.23.32-.32.05-.04.09-.08.13-.12.08-.07.15-.12.19-.16.02-.02.04-.03.05-.04s.02-.01.02-.01c0,0-.03.02-.07.05-.05.03-.12.08-.2.15-.17.13-.42.33-.68.6-.2.2-.4.44-.6.72-.07.09-.13.19-.19.29-.25.4-.48.86-.63,1.35-.16.49-.25.99-.28,1.47-.03.48,0,.93.05,1.32.03.19.06.37.1.52.11.69.28,1.36.62,1.96.12.21.25.42.4.62.07-.02.16-.05.27-.09.26-.07.6-.14.95-.17.35-.02.69,0,.95.04.25.04.42.09.42.09,0,0-.17-.01-.42,0-.13,0-.27.02-.42.04-.15.02-.32.06-.47.1-.24.06-.47.15-.66.24-.06.03-.12.06-.18.09-.05.03-.1.05-.14.07.13.18.27.37.39.57.38.62.49,1.26.6,1.97.03.18.07.37.19.51.08.08.2.13.32.13.01,0,.03,0,.04,0,.08,0,.16-.04.24-.06.06-.02.11-.03.17-.03.02-.01.05-.02.07-.03.15-.08.28-.19.37-.29.09-.1.14-.18.14-.18,0,0-.01.09-.05.23-.01.04-.03.09-.05.14-.02.05-.05.1-.08.15.03.07.07.14.12.2.14.19.35.34.64.34ZM211.79,263.04c-.03.12-.09.23-.16.32-.07.09-.15.15-.22.2-.07.05-.13.08-.18.1-.04.02-.07.03-.07.03,0,0,.02-.02.05-.06.03-.04.08-.09.13-.15.06-.06.11-.14.16-.21.05-.08.09-.17.11-.27.02-.09.02-.19-.01-.27-.03-.07-.09-.14-.15-.18-.06-.04-.12-.06-.17-.06-.05,0-.08,0-.08,0,0,0,.02-.02.07-.04.05-.01.13-.03.22,0,.09.03.19.09.25.2.06.11.07.24.05.37Z"/>
      <path class="st7" d="M194.22,275.46c-.1-.11-.24-.17-.39-.16-.22.01-.37.19-.43.4.11.09.21.19.27.28.08.11.12.19.12.19,0,0-.07-.06-.18-.13-.11-.07-.27-.15-.43-.19-.12-.03-.23-.05-.33-.05-.21.01-.43.03-.64.07-.22.04-.47.15-.59.35-.1.16-.18.37-.22.56-.04.2-.05.4-.1.6-.05.2-.11.4-.12.6,0,.21.04.42.17.58.03.03.06.06.1.08,0-.02,0-.03,0-.05,0-.13-.01-.29,0-.45.01-.17.04-.34.08-.52.05-.17.1-.34.16-.5.06-.15.14-.29.2-.41.06-.12.13-.2.18-.27.05-.06.08-.09.08-.09,0,0-.02.04-.05.11-.03.07-.07.17-.12.29-.05.12-.1.26-.15.41-.05.15-.1.32-.13.49-.04.17-.07.33-.1.49-.02.16-.04.31-.05.44,0,.02,0,.04,0,.07.03,0,.06,0,.08.03.03.02.04.06.05.09.04.1.16.17.27.17.01,0,.03,0,.04,0,0-.05,0-.11,0-.18,0-.15.01-.33.04-.52.03-.19.08-.39.14-.58.07-.19.15-.38.23-.55.09-.17.19-.32.28-.44.09-.12.17-.22.23-.28.06-.06.1-.1.1-.1,0,0-.03.04-.07.12-.05.07-.11.18-.18.31-.08.13-.14.29-.22.45-.08.17-.15.35-.21.54-.06.19-.12.38-.15.56-.02.09-.04.18-.05.26-.02.08-.03.16-.04.24,0,.06-.01.11-.02.16.01,0,.03,0,.04,0,.05.01.08.06.13.05.04,0,.07-.02.09-.04.04-.05.06-.13.07-.21,0-.04.01-.07.02-.1.04-.17.09-.34.16-.5.12-.32.29-.63.48-.92.12-.18.26-.36.41-.53.12-.13.24-.26.37-.38.14-.14.3-.26.45-.38.1-.07.11-.09.07-.22-.02-.09-.07-.18-.13-.25Z"/>
      <path class="st7" d="M210.95,255.32c-.06-.04-.13-.08-.21-.13-.08-.05-.18-.1-.28-.15-.21-.1-.46-.21-.74-.3-.14-.04-.29-.08-.44-.11-.15-.03-.31-.06-.46-.09-.31-.04-.63-.05-.92-.05-.29.01-.57.05-.8.09-.12.02-.22.04-.31.07-.09.02-.17.05-.24.07-.13.04-.2.07-.2.07,0,0,.08-.01.21-.03.07-.01.15-.02.24-.03.09-.01.2-.02.31-.03.23-.03.5-.03.78-.03.29,0,.59.03.89.07.3.04.6.1.88.17.27.08.53.15.75.24.11.04.21.08.29.12.09.03.16.07.22.1.03.01.06.03.08.04.07.03.11.05.11.05,0,0-.06-.04-.18-.12Z"/>
      <path class="st7" d="M193.3,282.29s-.02-.04-.05-.11c-.03-.07-.07-.17-.12-.3-.05-.13-.09-.29-.14-.48-.04-.19-.07-.4-.08-.64,0-.12-.01-.24,0-.37,0-.13.01-.26.02-.39.02-.27.08-.55.15-.83.07-.28.18-.57.3-.85.03-.07.06-.15.09-.2l.11-.21c.07-.15.16-.27.24-.4.08-.13.18-.25.27-.38.1-.12.2-.24.3-.35.21-.22.43-.43.67-.59.23-.18.48-.31.72-.43.12-.05.24-.1.36-.14.12-.03.24-.07.35-.09.23-.05.44-.06.63-.07.1,0,.19,0,.27.01.08.01.16.03.23.04.14.02.24.06.31.08.07.02.11.03.11.03,0,0,0,0-.03-.01-.02,0-.04-.02-.08-.04-.07-.03-.16-.09-.3-.13-.07-.02-.14-.05-.23-.07-.09-.02-.18-.03-.28-.05-.1-.02-.21-.01-.32-.02-.11,0-.23.01-.36.02-.12.01-.25.04-.38.07-.13.04-.26.08-.4.13-.26.11-.54.24-.8.42-.13.08-.26.18-.38.28-.07.05-.12.1-.18.16-.06.06-.12.11-.18.17-.11.12-.22.24-.33.37-.1.14-.2.26-.29.4-.04.07-.09.14-.13.22-.04.07-.08.14-.12.21l-.11.21c-.04.08-.07.15-.1.23-.06.15-.12.3-.17.45s-.09.31-.12.46c-.07.3-.11.6-.11.89,0,.28,0,.55.05.8.02.12.04.24.07.35.03.11.06.21.09.31.03.09.07.18.1.26.03.08.07.15.1.21.07.13.13.22.17.28.04.06.07.1.07.1Z"/>
      <path class="st7" d="M186.91,274.56l.11-.21c.07-.15.16-.27.24-.4.08-.13.18-.25.27-.38.1-.12.2-.24.3-.35.21-.22.43-.43.67-.59.23-.18.48-.31.72-.43.12-.05.24-.1.36-.14.06-.02.12-.03.18-.05s.12-.03.17-.04c.23-.05.44-.06.63-.07.1,0,.19,0,.27.01.08.01.16.03.23.04.14.02.24.06.31.08.07.02.11.03.11.03,0,0-.04-.02-.1-.05-.07-.03-.16-.09-.3-.13-.07-.02-.14-.05-.23-.07-.09-.01-.18-.03-.28-.05-.1-.02-.21-.01-.32-.02-.11,0-.23.01-.36.02-.12.01-.25.04-.38.07-.13.04-.26.08-.4.13-.13.05-.27.11-.4.18-.13.07-.27.15-.39.24-.13.08-.26.18-.38.28-.13.1-.24.22-.36.33-.11.12-.22.24-.33.37-.05.07-.1.13-.15.2-.05.07-.1.13-.14.21-.09.14-.18.29-.25.43l-.11.21c-.04.08-.07.15-.1.23-.13.3-.22.61-.29.91-.03.15-.06.3-.08.45-.02.15-.03.29-.03.44,0,.28,0,.55.05.8.03.25.09.46.16.65.06.19.14.35.2.47.07.13.13.22.17.28.04.06.07.1.07.1,0,0-.02-.04-.05-.11-.03-.07-.07-.17-.12-.3-.05-.13-.09-.29-.14-.48-.04-.19-.07-.4-.08-.64-.02-.23,0-.49.02-.76.02-.27.08-.55.15-.83.03-.14.08-.28.13-.43.05-.14.11-.28.17-.42.03-.07.06-.15.09-.2Z"/>
      <path class="st7" d="M209.49,277.92c-.17.09-.32.17-.45.23-.06.03-.12.06-.17.08-.05.02-.09.04-.12.06-.07.03-.1.05-.1.05,0,0,.15-.06.41-.16.13-.05.28-.12.46-.2.18-.08.38-.17.59-.27.43-.21.93-.46,1.44-.76.51-.3,1.05-.65,1.58-1.01.52-.37,1.02-.77,1.48-1.15.34-.29.66-.58.93-.85.09-.09.18-.18.27-.26.09-.08.17-.16.24-.24.08-.08.15-.15.21-.23.13-.14.25-.27.34-.37.18-.21.29-.33.29-.33,0,0-.03.03-.08.08-.05.05-.13.13-.23.22-.1.1-.22.21-.36.35-.14.13-.3.28-.48.44-.09.08-.18.16-.27.25-.1.08-.2.17-.3.26-.21.18-.43.36-.66.55-.46.37-.96.76-1.48,1.12-.52.37-1.04.72-1.55,1.03-.51.3-.98.59-1.41.81-.21.11-.4.22-.57.3Z"/>
      <path class="st7" d="M211.96,295.86c1.45-.05,2.81-.32,4.11-.79.03-.1.06-.22.1-.34.14-.5.29-1.17.38-1.86.02-.17.04-.34.06-.52.05-.51.07-1.01.07-1.4,0-.13,0-.25,0-.36,0-.21-.01-.37-.02-.46,0-.04,0-.06,0-.06,0,0,.09.34.19.87.03.13.05.27.07.42.02.15.05.31.07.48.04.33.08.69.1,1.05.03.5.03,1,0,1.44.14-.65.2-1.32.18-1.98,0-.22-.02-.44-.04-.66-.02-.15-.04-.31-.06-.46-.07-.46-.14-.92-.15-1.38,0-.35.03-.7.09-1.04.06-.34.14-.68.23-1.02.09-.34.19-.67.27-1.01.09-.34.16-.68.21-1.02.02-.13,0-.33,0-.51,0-.19,0-.37.06-.49-.97-.15-1.98.01-2.97.05-2.1.08-4.17-.33-6.24-.61-.53-.07-.88-.08-1.3-.09-.07,0-.14,0-.22,0-.07,0-.15,0-.23,0-.1.4-.2.79-.28,1.19-.08.39-.15.78-.2,1.17-.13,1.18-.03,2.41.13,3.58.06.44.12.88.14,1.31,0,.15.01.29.02.44,0,.58-.05,1.16-.23,1.74-.05.15-.1.3-.16.45,1.34,1.45,3.33,1.94,5.59,1.87ZM207.11,290.24c-.03-.33-.04-.69-.05-1.04,0-.18,0-.35.01-.53,0-.17.01-.35.02-.51.02-.33.06-.64.1-.9.04-.26.08-.48.11-.63.03-.15.05-.24.05-.24,0,0,0,.09-.02.24-.01.15-.02.37-.04.64-.02.26-.03.57-.04.9-.01.33-.02.68-.01,1.03,0,.35,0,.7.03,1.03.02.33.03.64.06.9.02.26.04.48.05.64.01.15.02.24.02.24,0,0-.02-.09-.06-.24-.03-.15-.08-.37-.12-.63-.04-.26-.09-.57-.12-.9ZM209.62,290.8c.1-.02.23-.01.37.03.13.06.25.16.33.3.06.15.07.31.04.45-.05.13-.12.24-.2.31-.09.07-.17.1-.22.11-.06,0-.09,0-.09,0,0,0,.02-.02.05-.07.03-.04.07-.1.09-.18.03-.07.04-.15.04-.23,0-.08-.01-.16-.05-.22-.02-.07-.08-.13-.14-.18-.06-.06-.14-.1-.21-.11-.07-.03-.14-.04-.19-.04-.05,0-.09,0-.09,0,0,0,.02-.03.06-.07.04-.04.12-.08.22-.11ZM213.18,290.06c.1-.42.19-.84.27-1.24.09-.4.17-.77.23-1.09.04-.16.07-.31.1-.44s.05-.24.07-.34c.03-.14.06-.23.07-.27,0-.01,0-.02,0-.02,0,0,0,.03,0,.08,0,.03,0,.06,0,.09,0,.04,0,.08,0,.13,0,.05,0,.1,0,.16,0,.12,0,.25,0,.4,0,.08,0,.15,0,.24-.02.33-.06.71-.1,1.12-.06.41-.13.84-.22,1.27-.1.43-.21.85-.33,1.25-.13.39-.25.75-.37,1.06-.13.3-.23.56-.31.73-.09.17-.13.27-.13.27,0,0,0,0,0-.02,0-.03.01-.08.03-.15,0-.04.01-.08.02-.13.04-.19.1-.45.16-.77.08-.32.16-.69.24-1.09.09-.4.18-.82.27-1.24ZM210.38,284.8s0,.07.02.2c0,.13.02.31.02.53,0,.11,0,.23,0,.35,0,.13,0,.26-.01.4-.02.27-.04.57-.06.86-.03.29-.07.58-.1.85-.04.27-.09.52-.12.74-.04.22-.09.39-.11.52-.02.06-.03.11-.04.14,0,.03-.01.05-.01.05,0,0,0,0,0-.01,0-.03,0-.09.01-.19.01-.13.02-.31.04-.53.02-.22.03-.47.06-.74.02-.27.05-.56.07-.85.01-.14.03-.29.04-.43.01-.14.03-.28.04-.42.01-.14.03-.27.04-.39.01-.12.03-.24.04-.35.02-.22.05-.4.06-.53,0-.03,0-.06.01-.08,0-.05.01-.08.01-.1,0,0,0-.01,0-.01Z"/>
      <path class="st7" d="M210.46,254.6s-.04-.02-.12-.06c-.08-.03-.18-.09-.32-.14-.13-.05-.29-.11-.47-.15-.17-.04-.36-.08-.55-.11-.19-.02-.38-.04-.56-.04-.18,0-.35,0-.49.02-.14,0-.26.03-.34.05-.08.02-.13.03-.13.03,0,0,.05,0,.13.01.08,0,.2.02.34.02.14,0,.3.03.48.04.17.01.36.04.55.07.19.02.37.05.54.08.17.04.34.06.47.09.14.03.26.05.34.07.08.02.13.03.13.03Z"/>
      <path class="st7" d="M220,270.67h0s0,0,0,0c-.66.35-1.27.77-1.63,1.27-.06.09-.12.18-.18.28-.05.1-.1.19-.15.29-.09.2-.17.41-.23.62-.53,1.75-.32,3.71.56,5.31.12.22.27.42.47.57.03-.23.08-.48.13-.72.03-.12.06-.24.09-.36.1-.36.22-.69.32-.94.04-.09.07-.16.1-.23.03-.07.06-.13.08-.18.05-.1.07-.15.07-.15,0,0-.06.24-.11.6-.05.36-.09.84-.08,1.32.01.48.07.94.14,1.29.02.11.04.2.06.28.03.07.05.15.08.22.37.93.75,1.86,1.12,2.78.03.07.06.14.09.21.04.06.08.13.13.2.1.15.22.33.35.52.07.09.14.19.21.28.07.09.15.19.23.28.31.37.67.71.97.92.07.06.15.1.21.14.06.04.12.07.17.1.1.05.15.08.15.08,0,0-.06-.01-.17-.04-.06,0-.12-.03-.19-.05-.07-.02-.16-.05-.25-.09-.36-.13-.82-.39-1.24-.7-.02-.02-.04-.03-.07-.05,0,.08,0,.16.01.22.03.4.09.8.16,1.19.14.8.33,1.59.52,2.38.16.69.32,1.38.48,2.07.18.77.36,1.54.65,2.27.32.8.76,1.54,1.17,2.29.46.84.87,1.7,1.26,2.58.2.44.39.88.57,1.32.19.44.37.88.56,1.32.22.54.45,1.12.52,1.7,0-.07.01-.14.01-.2,0-.07,0-.13,0-.2,0-.13-.01-.25-.03-.36,0-.05-.02-.1-.02-.15-.03-.13-.05-.21-.05-.21,0,0,.02.03.05.09.03.06.07.14.11.25.07.16.13.36.18.58.02.07.03.15.04.23.04.26.04.53.02.75.17-.13.34-.25.52-.36,0-.03,0-.07-.01-.12s-.01-.1-.02-.15c-.03-.26-.09-.6-.15-.94-.12-.69-.25-1.37-.25-1.37,0,0,.23.66.44,1.33.13.41.25.82.32,1.08.03-.02.07-.04.1-.06.47-.22.98-.37,1.49-.4-.1-.2-.23-.49-.34-.79-.07-.2-.13-.41-.18-.58-.02-.06-.03-.11-.04-.17-.03-.1-.04-.19-.06-.25,0-.03-.01-.05-.01-.07,0-.02,0-.02,0-.02,0,0,.1.2.24.46.03.05.06.11.1.16.07.11.14.23.22.34.07.1.13.19.2.27-.11-.19-.22-.38-.32-.58-.1-.2-.2-.39-.29-.59-.09-.2-.18-.4-.26-.61-.08-.2-.16-.41-.24-.62-.3-.83-.55-1.68-.8-2.53-.43-1.47-.85-2.95-1.28-4.42-.36-1.27-.73-2.54-.9-3.85-.02-.13-.03-.26-.04-.39-.02.04-.05.08-.07.12-.34.56-.72,1.09-1.02,1.48-.3.39-.51.63-.51.63,0,0,.02-.04.06-.11.07-.12.18-.33.32-.6.22-.43.49-1.02.71-1.61.09-.23.17-.46.24-.68.07-.22.14-.44.19-.63-.01-.56-.01-1.12,0-1.69,0-.84,0-1.69-.05-2.52-.06-.83-.18-1.66-.41-2.46-.23-.77-.56-1.5-.89-2.23-.09-.2-.18-.39-.27-.59-.04.06-.07.12-.11.18-.07.12-.15.23-.23.34-.08.11-.16.22-.23.32-.15.2-.31.39-.44.54-.07.08-.13.14-.19.2-.17.18-.28.28-.28.28,0,0,.15-.22.34-.58.14-.26.31-.6.45-.96.05-.12.09-.24.14-.37.08-.24.15-.49.21-.72-.2-.45-.41-.9-.61-1.35-.23-.52-.49-1.05-.78-1.56-.18-.3-.37-.59-.57-.87-.07-.09-.14-.18-.21-.26-.51-.6-1.13-1.05-1.9-1.25,0,0,0,0,0,0ZM218,274.17c.08-.37.18-.73.3-1.07.07-.16.14-.32.21-.46s.15-.28.22-.4c.08-.12.15-.22.22-.31.07-.09.13-.17.18-.23.11-.12.17-.19.17-.19,0,0-.04.08-.11.23-.04.07-.08.16-.13.26-.05.1-.1.22-.14.34-.11.25-.22.55-.31.87-.1.32-.18.67-.24,1.02-.07.35-.11.71-.12,1.04-.02.34-.02.65,0,.92,0,.14,0,.26.02.37,0,.06,0,.11.01.16,0,.05.01.09.02.13,0,.08.01.14.02.19,0,.04,0,.07,0,.07,0,0,0-.02-.03-.06,0-.02-.02-.04-.03-.07-.01-.03-.03-.06-.04-.1-.03-.08-.06-.17-.09-.28-.04-.11-.07-.23-.1-.37-.03-.14-.05-.29-.07-.45-.02-.16-.04-.33-.05-.51,0-.18,0-.36.02-.54.01-.19.03-.37.06-.56ZM220.95,272.56c.11-.14.21-.25.28-.33.07-.07.12-.12.12-.12,0,0-.03.05-.09.14-.06.09-.13.22-.22.37-.09.15-.18.33-.29.53-.1.19-.2.4-.29.62-.1.21-.18.43-.26.64-.07.21-.14.4-.19.57-.02.08-.05.16-.07.23-.02.07-.04.13-.05.18-.03.1-.05.16-.05.16,0,0,0-.06,0-.16,0-.1.02-.25.05-.43.03-.18.07-.38.14-.6.07-.21.15-.44.24-.66.1-.22.21-.43.33-.62.11-.19.24-.36.35-.5ZM227.11,294.52c.05.13.09.28.15.43.05.15.1.31.16.48.05.17.11.34.17.51.06.17.11.35.17.53.06.18.11.36.17.53.05.18.11.35.16.51.1.33.19.65.27.92.16.54.24.91.24.91,0,0-.11-.18-.26-.49-.05-.1-.11-.22-.16-.35-.12-.26-.24-.56-.37-.89-.06-.17-.13-.33-.19-.51-.06-.18-.12-.35-.18-.53-.05-.18-.11-.36-.16-.54-.05-.18-.09-.35-.14-.52-.04-.17-.08-.34-.12-.49-.04-.16-.07-.31-.09-.45-.11-.55-.14-.93-.14-.93,0,0,0,.02.02.06.04.1.13.33.23.63.02.06.04.12.07.19ZM227.91,299.02c.07.17.12.31.16.41.04.1.06.16.06.16,0,0-.03-.05-.09-.14-.05-.09-.14-.22-.23-.38-.04-.08-.09-.17-.14-.26-.05-.09-.1-.19-.15-.29-.1-.21-.2-.42-.3-.64-.09-.22-.18-.45-.27-.66-.08-.21-.15-.41-.21-.59-.06-.17-.1-.32-.13-.42-.03-.1-.04-.16-.04-.16,0,0,.03.05.08.15.05.1.12.23.19.39.07.17.17.35.26.56.09.21.19.43.29.65.1.22.19.44.28.65.09.21.17.41.24.57Z"/>
      <path class="st7" d="M212.89,259.62c-.03-.17-.06-.34-.09-.51-.07-.33-.15-.65-.24-.94-.04-.15-.09-.28-.14-.42-.19-.53-.43-.94-.61-1.22-.09-.13-.17-.24-.22-.31-.05-.07-.08-.11-.08-.11,0,0,.03.04.08.11.05.07.12.18.2.32.16.28.36.7.54,1.23.18.53.31,1.17.41,1.85.1.69.16,1.43.25,2.18.09.74.22,1.49.42,2.17.05.17.11.33.17.49.19.48.42.9.66,1.25.08.12.16.23.24.32.16.2.33.36.48.49.07.07.15.12.21.17.13.1.24.17.32.21.08.05.12.07.12.07,0,0-.04-.03-.11-.08-.07-.05-.17-.13-.3-.23-.25-.21-.57-.55-.87-1.02-.3-.47-.56-1.06-.76-1.73-.19-.67-.31-1.4-.39-2.14-.09-.74-.17-1.48-.28-2.18Z"/>
      <path class="st7" d="M212.25,258.59c-.06-.33-.14-.65-.25-.95-.06-.15-.12-.29-.19-.41-.07-.13-.14-.25-.21-.35-.15-.2-.3-.35-.41-.44-.05-.05-.1-.08-.13-.1-.03-.02-.05-.04-.05-.04,0,0,.01.01.04.04.03.03.07.06.12.12.1.11.22.27.34.48.12.21.24.47.32.76.1.29.17.6.22.92.06.32.11.64.15.95.05.3.11.59.17.83.07.24.14.44.19.57.05.13.09.21.09.21,0,0-.01-.04-.04-.13,0-.03-.02-.06-.02-.09-.04-.14-.08-.34-.11-.58-.04-.24-.08-.53-.11-.83-.04-.31-.08-.63-.13-.96Z"/>
      <path class="st7" d="M190.14,280.8c-.07-.05-.18-.12-.3-.22-.06-.05-.13-.1-.19-.18-.03-.04-.07-.07-.1-.11-.03-.04-.07-.08-.1-.12-.06-.09-.14-.18-.19-.29-.03-.05-.06-.11-.09-.16-.03-.06-.05-.12-.08-.18-.11-.24-.19-.53-.25-.83-.05-.3-.07-.63-.06-.96,0-.17.03-.34.05-.51.03-.17.06-.34.11-.51.08-.34.21-.68.36-1,.08-.15.16-.34.25-.48l.14-.22c.05-.07.1-.14.15-.22.1-.15.22-.27.33-.41.12-.12.23-.25.36-.36.06-.05.13-.11.19-.16.06-.05.13-.1.19-.15.13-.1.26-.18.39-.26.27-.14.54-.27.8-.34.06-.02.13-.04.19-.05.06-.01.13-.02.19-.03.12-.03.24-.03.35-.04.11-.01.21,0,.31,0,.05,0,.09,0,.14.01.04,0,.08.02.12.02.16.02.28.06.36.09.08.03.13.04.13.04,0,0-.04-.02-.12-.06-.08-.04-.19-.1-.35-.14-.08-.02-.17-.05-.26-.07-.1-.01-.2-.04-.32-.04-.12,0-.24-.02-.37,0-.07,0-.13.01-.2.02-.07.01-.14.03-.21.04-.28.05-.58.16-.87.3-.15.08-.29.16-.44.25-.14.09-.29.2-.42.32-.14.12-.27.24-.4.37s-.25.27-.36.43c-.06.08-.11.15-.17.23l-.15.24c-.05.08-.1.16-.14.25-.04.08-.08.16-.13.25-.15.35-.29.71-.37,1.08-.09.36-.13.74-.13,1.09,0,.36.04.7.11,1.02.08.32.19.61.33.86.03.06.07.13.1.18.04.06.08.11.12.16.07.11.16.2.24.28.07.09.16.15.24.22.04.03.07.06.11.09.04.03.07.05.11.07.13.1.25.14.33.18.08.04.12.06.12.06,0,0-.04-.03-.11-.07Z"/>
      <path class="st7" d="M227.67,308.85c.07-.01.1-.02.1-.02,0,0-.04,0-.1,0-.07.01-.17,0-.28-.03-.06-.02-.12-.04-.19-.07-.06-.04-.14-.06-.21-.12-.07-.05-.15-.1-.22-.17-.04-.03-.07-.06-.11-.1-.03-.04-.07-.07-.11-.11-.15-.15-.28-.34-.41-.54-.13-.21-.25-.43-.36-.67-.12-.24-.21-.5-.3-.76-.09-.26-.17-.54-.23-.81-.03-.13-.06-.28-.09-.42-.02-.14-.05-.27-.06-.41-.03-.28-.06-.55-.06-.81,0-.26,0-.52.03-.76.01-.12.03-.24.05-.35.02-.11.05-.22.08-.32.02-.05.03-.1.05-.15.02-.05.04-.09.06-.14.03-.09.08-.17.12-.24.04-.08.09-.13.14-.2.05-.06.1-.1.14-.14.1-.07.18-.13.24-.15.06-.03.1-.04.1-.04,0,0-.03,0-.1.03-.03,0-.07.02-.12.04-.04.02-.1.05-.15.08-.05.04-.11.08-.16.14-.05.06-.12.12-.16.19-.11.15-.21.32-.28.53-.08.21-.14.44-.18.69-.04.25-.07.51-.07.79,0,.27,0,.56.04.84.01.14.04.29.06.43.03.14.06.28.08.43.07.28.15.56.25.83.05.14.1.27.16.4.06.13.12.26.18.38.06.12.13.24.2.35s.14.22.21.32c.15.2.3.39.47.54.08.08.16.15.24.2.04.03.08.06.12.08.04.02.08.05.12.07.08.05.16.07.23.1.07.02.15.03.21.05.13.01.23,0,.3,0Z"/>
      <path class="st7" d="M224.4,309.24c.05.03.08.05.08.05,0,0-.02-.02-.07-.06-.05-.04-.11-.1-.19-.18-.04-.04-.08-.09-.13-.14-.04-.05-.09-.11-.14-.17-.09-.12-.19-.27-.29-.43-.2-.33-.38-.73-.55-1.18-.08-.22-.15-.46-.22-.7-.03-.12-.06-.24-.09-.37-.02-.13-.05-.25-.07-.38-.04-.25-.08-.5-.09-.75-.02-.25-.03-.49-.02-.73,0-.12,0-.23.02-.35,0-.11.02-.22.04-.33.03-.21.09-.41.14-.59.03-.09.07-.17.1-.25.04-.07.08-.15.12-.21.08-.13.18-.22.26-.29.05-.03.09-.06.12-.08.04-.02.07-.03.1-.05.06-.02.09-.04.09-.04,0,0-.03,0-.09.02-.03,0-.07.01-.11.03-.04.02-.09.04-.14.07-.1.06-.21.15-.31.28-.05.06-.1.14-.15.21-.04.08-.09.16-.13.25-.08.18-.15.39-.2.61-.02.11-.05.22-.06.34-.02.12-.03.24-.04.36-.02.25-.02.5,0,.76.02.26.05.52.09.78.02.13.05.25.08.38.03.13.06.25.09.38.07.25.15.49.24.72.14.34.3.66.46.93.06.09.11.18.17.25.11.16.23.3.34.41.11.12.21.21.3.28.09.07.16.12.22.15Z"/>
      <path class="st7" d="M220.41,313.61c.09-.93.26-1.84.28-2.78.05-1.77-.15-3.53-.47-5.27-.12.05-.24.1-.38.15-.17.06-.35.13-.54.2-.19.07-.4.13-.61.19-.43.13-.88.24-1.35.34-.92.19-1.86.28-2.55.31-.35.02-.64.01-.84.01-.05,0-.1,0-.14,0-.04,0-.07,0-.1,0-.05,0-.08,0-.08,0,0,0,.11-.01.32-.04.2-.02.49-.06.83-.13.68-.12,1.57-.34,2.43-.65.01,0,.03-.01.04-.02-1.28.31-2.6.41-3.93.43-.14,0-.27,0-.41,0,.17.6.33,1.21.46,1.83.3,1.38.5,2.78.75,4.16,2.04.56,4.13,1,6.26,1.32,0-.02,0-.03,0-.05Z"/>
      <path class="st7" d="M230.52,304.29c-.18-.77-.23-1.52-.17-2.18-.08,0-.15.02-.21.03-.45.14-.64.62-.64.62-.6-.56-1.15.36-1.15.36-.41-.39-.74.51-.74.51-.14-.2-.33-.2-.51-.13-.12.21-.26.4-.35.62-.2.51-.05,1.06.3,1.5.14.17.31.33.49.45.09.06.19.12.29.16.01,0,.03,0,.04,0,.09.02.2,0,.26-.03-.15-.22-.33-.48-.51-.75-.11-.16-.21-.35-.23-.54-.02-.19.01-.36.05-.49.04-.14.08-.24.11-.32.03-.07.05-.12.05-.12,0,0,0,.05-.02.12-.01.08-.04.19-.05.33,0,.13,0,.29.04.44.05.15.15.27.27.4.42.41.83.81.98.96,0,0,.01,0,.02,0,.07,0,.14-.02.2-.05.06-.03.12-.06.17-.11-.01-.02-.02-.03-.04-.05-.2-.26-.45-.59-.72-.95-.13-.18-.23-.42-.25-.63-.03-.21,0-.41.03-.57.03-.16.07-.29.09-.38.03-.09.04-.14.04-.14,0,0,0,.05-.02.15,0,.09-.02.23-.02.39,0,.08,0,.17.01.25,0,.09.03.18.05.27.05.18.16.34.3.48.3.29.62.58.86.8.13.12.23.21.3.28.05.01.11.02.16.02.14,0,.29-.06.38-.16-.06-.07-.14-.17-.24-.29-.05-.06-.1-.13-.16-.2-.16-.22-.34-.48-.46-.79-.08-.2-.13-.41-.14-.61-.01-.2,0-.38.03-.53.01-.08.03-.14.04-.2.02-.06.03-.11.04-.15.01-.04.03-.07.03-.1,0-.02.01-.03.01-.03,0,0,0,.05-.02.14-.01.09-.02.21-.02.36,0,.15.02.32.06.49.04.17.12.35.22.51.2.32.48.58.7.77.02.02.04.03.05.05.07-.03.13-.07.2-.11-.1-.27-.19-.56-.26-.86Z"/>
      <path class="st7" d="M231.06,300.48c-.05.06-.1.14-.15.21-.04.08-.09.16-.13.25-.08.18-.15.39-.2.61-.03.11-.05.22-.06.34-.02.12-.03.24-.04.36-.02.25-.02.5,0,.76.02.26.05.52.09.78.02.13.05.25.08.38.03.13.06.25.09.38.07.25.15.49.24.72.18.46.4.86.63,1.18.11.16.23.3.34.41.11.12.21.21.3.28.05.04.09.07.12.09s.07.05.09.06c.05.03.08.05.08.05,0,0,0,0-.02-.02-.01-.01-.03-.02-.05-.04-.05-.04-.11-.1-.19-.18-.08-.08-.17-.18-.26-.31-.09-.12-.19-.27-.29-.43-.05-.08-.1-.17-.15-.26-.1-.18-.19-.38-.27-.59-.04-.11-.09-.22-.13-.33-.08-.22-.15-.46-.22-.7-.03-.12-.06-.24-.09-.37-.02-.13-.05-.25-.07-.38-.04-.25-.08-.5-.09-.75-.02-.25-.03-.49-.02-.73,0-.12,0-.23.02-.35,0-.11.02-.22.04-.33.02-.11.04-.21.06-.31.02-.1.05-.19.08-.28.03-.09.07-.17.1-.25.04-.07.08-.15.12-.21.08-.13.18-.22.26-.29.05-.03.09-.06.12-.08.04-.02.07-.03.1-.05.06-.02.09-.04.09-.04,0,0-.03,0-.09.02-.03,0-.07.01-.11.03-.04.02-.09.04-.14.07-.1.06-.21.15-.31.28Z"/>
      <path class="st7" d="M232.94,301.11c-.04.25-.07.51-.07.79,0,.27,0,.56.04.84.01.14.04.29.06.43.03.14.06.28.08.43.07.28.15.56.25.83.1.27.21.53.34.77.12.25.27.47.41.68.15.2.3.39.47.54.08.08.16.15.24.2.08.06.17.11.24.15.08.05.16.07.23.1.07.02.15.03.21.05.13.01.23,0,.3,0,.07-.01.1-.02.1-.02,0,0-.04,0-.1,0-.07.01-.17,0-.28-.03-.06-.02-.12-.04-.19-.07-.06-.04-.14-.06-.21-.12-.07-.05-.15-.1-.22-.17-.04-.03-.07-.06-.11-.1-.03-.04-.07-.07-.11-.11-.15-.15-.28-.34-.41-.54-.13-.21-.25-.43-.36-.67-.12-.24-.21-.49-.3-.76-.09-.26-.17-.54-.23-.81-.03-.13-.06-.28-.09-.42-.02-.14-.05-.27-.06-.41-.03-.28-.06-.55-.06-.81,0-.26,0-.52.03-.76.03-.24.07-.47.13-.67.02-.05.03-.1.05-.15.02-.05.04-.09.06-.14.03-.09.08-.17.12-.24.02-.04.04-.07.07-.1.02-.03.05-.06.07-.09.05-.06.1-.1.14-.14.1-.07.18-.13.24-.15.06-.03.1-.04.1-.04,0,0-.03,0-.1.03-.07.01-.16.06-.27.12-.05.04-.11.08-.16.14-.05.06-.12.12-.16.19-.11.15-.21.32-.28.53-.04.1-.07.21-.1.33-.03.11-.06.23-.08.36Z"/>
      <path class="st7" d="M206.78,309.7c.14-.35.29-.7.44-1.06.1-.23.21-.46.32-.69.22-.45.44-.89.65-1.29.1-.2.21-.39.3-.56-.27-.07-.57-.15-.89-.25-.39-.13-.8-.29-1.19-.47-.39-.18-.78-.39-1.12-.59-.34-.21-.66-.42-.91-.61-.13-.09-.24-.19-.35-.27-.1-.08-.19-.15-.26-.22-.14-.12-.22-.19-.22-.19,0,0,.09.06.25.16.08.05.17.11.29.17.11.07.24.14.38.21.28.15.61.3.97.46.36.15.76.28,1.16.4.31.09.62.15.92.21-.38-.14-.75-.28-1.13-.43-.17-.07-.4-.17-.65-.28-.42-.19-.89-.42-1.26-.64-.07-.04-.14-.08-.21-.13-.52-.33-1.22-.86-1.63-1.36-.57,1.47-1.09,2.95-1.56,4.46,1.83,1.1,3.74,2.09,5.71,2.97Z"/>
      <path class="st7" d="M207.52,309.67c.25-.61.5-1.21.8-1.8-.21.33-.43.67-.63,1.01-.19.33-.38.65-.56.97.09.04.18.08.27.12.04-.1.08-.2.13-.31Z"/>
      <path class="st7" d="M205.65,282.27c.1.11.19.22.28.31.19.19.36.36.51.49.08.07.15.13.21.19.07.05.12.1.18.15.05.04.09.08.13.11.07.06.11.09.11.09,0,0-.04-.03-.1-.1-.07-.06-.16-.16-.29-.27-.24-.24-.59-.58-.95-1.03-.09-.11-.18-.23-.27-.36-.09-.13-.17-.27-.25-.41-.16-.29-.3-.61-.4-.95-.1-.34-.15-.71-.13-1.08.02-.37.12-.74.25-1.1.13-.36.29-.71.45-1.06.16-.35.3-.7.44-1.04.27-.68.47-1.34.63-1.9.16-.56.26-1.04.33-1.37.03-.17.06-.3.07-.39,0-.04.01-.08.02-.1s0-.04,0-.04c0,0-.03.11-.08.3-.02.06-.04.14-.06.22-.09.33-.22.8-.4,1.35-.18.56-.41,1.19-.68,1.87-.14.34-.29.68-.45,1.03s-.33.7-.47,1.07c-.07.19-.13.38-.17.57-.04.19-.07.39-.08.59-.01.39.04.78.15,1.14.21.72.62,1.3,1,1.75Z"/>
      <path class="st7" d="M202.99,284.23c-.07-.09-.15-.17-.22-.25-.14-.15-.26-.27-.34-.35-.05-.05-.09-.08-.11-.1-.03-.01-.05-.03-.08-.04-.38-.19-.76-.38-1.13-.58-.09.13-.19.25-.29.37.22.13.49.3.75.49.59.43,1.08.94,1.08.94,0,0-.08-.06-.22-.14-.14-.09-.33-.2-.55-.32-.15-.08-.3-.16-.46-.23-.35-.16-.71-.29-.96-.37-.59.55-1.29.92-2,1.08.17.2.34.42.46.57.04.05.08.09.11.12.15.15.3.31.46.46.47.45.96.87,1.48,1.25.61.45,1.26.84,1.95,1.14.23.1.46.19.7.28.48.17,1.08.27,1.46-.07.12-.1.2-.24.27-.38-.05-1.81,0-3.61.17-5.41-.06-.07-.12-.14-.18-.21-.06-.07-.11-.14-.16-.2-.23-.31-.46-.62-.64-.95-.06-.11-.12-.23-.16-.34-.14-.34-.21-.68-.23-1.03-.01-.18-.01-.35,0-.53.05-.89.35-1.8.65-2.66,0-.01,0-.03.01-.04-.24.27-.45.53-.6.75-.1.13-.17.25-.23.34-.17.42-.32.84-.44,1.27-.06.22-.11.43-.16.65-.23,1.1-.29,2.23-.17,3.35.07.11.16.25.26.41.17.3.36.68.51,1.09.05.14.1.28.14.42.13.43.22.86.26,1.24.02.12.03.24.03.35.02.22.02.4.02.52,0,.06,0,.11,0,.15,0,.03,0,.05,0,.05,0,0,0,0,0-.01,0-.03-.02-.09-.04-.18-.03-.12-.07-.3-.13-.5-.12-.41-.32-.94-.6-1.42-.07-.12-.14-.24-.21-.35-.15-.23-.3-.44-.45-.62ZM204.41,284.93c-.02-.08-.03-.13-.03-.13,0,0,.02.04.06.12.04.08.09.18.14.32.05.14.1.3.14.48.03.18.06.37.08.57,0,.19,0,.39,0,.57-.01.18-.05.35-.08.49-.03.14-.07.26-.1.34-.01.04-.03.07-.03.09,0,.02-.01.03-.01.03,0,0,0-.05,0-.13,0-.04,0-.09.01-.15,0-.06,0-.12.01-.19.01-.14,0-.31.01-.48,0-.18,0-.36-.02-.55,0-.19-.03-.37-.05-.55-.01-.09-.03-.17-.04-.25-.01-.08-.02-.16-.04-.23-.03-.14-.05-.26-.07-.34Z"/>
      <path class="st7" d="M217.09,296.05c.3-.1.47-.16.47-.16,0,0-.18.03-.49.09-.31.06-.75.14-1.28.24-.53.11-1.15.2-1.81.29-.66.09-1.37.15-2.08.15-.71,0-1.42-.05-2.07-.19-.65-.13-1.24-.31-1.73-.53-.49-.22-.88-.44-1.13-.62-.13-.08-.23-.16-.3-.21-.07-.05-.1-.08-.1-.08,0,0,.03.03.09.09.06.06.14.15.27.26.12.1.27.23.45.36.09.07.19.13.29.2.11.07.22.13.34.2.49.25,1.08.51,1.76.66.67.16,1.4.24,2.14.25.73-.01,1.46-.09,2.13-.2.67-.11,1.29-.28,1.81-.42.52-.14.95-.29,1.25-.38Z"/>
      <path class="st7" d="M203.48,301.06s.05-.08.14-.23c.08-.15.21-.35.35-.6.13-.25.31-.54.48-.85.17-.32.35-.65.55-.98.18-.34.36-.67.54-.98.18-.31.33-.61.47-.86.14-.25.24-.47.32-.62.08-.15.12-.24.12-.24,0,0-.04.04-.1.11-.02.02-.05.05-.08.08-.11.13-.28.31-.45.54-.17.23-.38.5-.58.8-.19.31-.39.63-.59.97-.18.34-.35.69-.51,1.01-.15.33-.27.65-.37.92-.03.07-.05.13-.07.19-.04.12-.08.24-.11.34-.01.05-.03.09-.04.13-.04.16-.07.26-.07.26Z"/>
    </g>
    <g>
      <polyline class="st9" points="135.34 353.22 135.34 406.27 327.72 406.27 327.72 353.22"/>
      <polyline class="st9" points="250.06 240.59 250.06 228.76 327.74 228.76 327.74 300.19"/>
      <polyline class="st9" points="212.74 240.59 212.74 228.76 135.06 228.76 135.06 300.19"/>
    </g>
    <polygon class="st5" points="231.4 221.96 233.56 226.34 238.4 227.04 234.9 230.45 235.73 235.27 231.4 233 227.07 235.27 227.9 230.45 224.4 227.04 229.24 226.34 231.4 221.96"/>
    <text class="st2" transform="translate(150.9 358.3)"><tspan x="0" y="0">ALMASARALABYAD.CO</tspan></text>
    <text class="st1" transform="translate(161.81 385.26)"><tspan x="0" y="0">COACHING SERVICES</tspan></text>
    <rect class="st5" x="121.99" y="323.62" width="6.31" height="5.99"/>
    <rect class="st5" x="142.07" y="323.62" width="12.91" height="5.99"/>
    <rect class="st5" x="334.5" y="323.62" width="6.31" height="5.99" transform="translate(675.31 653.24) rotate(180)"/>
    <rect class="st5" x="307.81" y="323.62" width="12.91" height="5.99" transform="translate(628.53 653.24) rotate(180)"/>
    <g>
      <rect class="st7" x="126.36" y="304.92" width="3.87" height="43.39"/>
      <rect class="st7" x="133.25" y="304.92" width="3.87" height="43.39"/>
      <rect class="st7" x="140.14" y="304.92" width="3.87" height="43.39"/>
    </g>
    <g>
      <rect class="st7" x="332.56" y="304.92" width="3.87" height="43.39" transform="translate(668.99 653.24) rotate(180)"/>
      <rect class="st7" x="325.67" y="304.92" width="3.87" height="43.39" transform="translate(655.22 653.24) rotate(180)"/>
      <rect class="st7" x="318.79" y="304.92" width="3.87" height="43.39" transform="translate(641.45 653.24) rotate(180)"/>
    </g>
    <text class="st0" transform="translate(-280.37 56.32)"><tspan x="0" y="0">Lorem ipsum</tspan></text>
    <text class="st4" transform="translate(156.74 329.62)"><tspan x="0" y="0" xml:space="preserve">   </tspan></text>
  </g>
  <g id="DESIGNED_BY_FREEPIK">
    <g>
      <g>
        <g>
          <path class="st3" d="M260.1,465.47c-.43.44-.8.93-1.11,1.45l-.47-.24c-.07-.3-.35-.5-.66-.47-.33.04-.57.34-.53.67.04.33.34.57.67.53.07,0,.13-.03.18-.05l.45.23c-.25.55-.43,1.14-.54,1.74l.75.13c.23-1.31.85-2.51,1.79-3.47l-.54-.53Z"/>
          <path class="st3" d="M265.59,463.16c-.17,0-.34,0-.51.02l-.07-.63c.19-.15.3-.39.27-.64-.05-.39-.4-.67-.8-.63-.39.05-.67.4-.63.8.03.25.19.46.4.56l.07.62c-.71.12-1.4.33-2.06.65l.33.68c.93-.45,1.94-.67,3-.67.5,0,.99.05,1.47.16l.16-.74c-.53-.12-1.09-.17-1.64-.17Z"/>
          <path class="st3" d="M272.19,465.71c.33-.04.57-.34.53-.67-.04-.33-.34-.57-.67-.53-.31.04-.54.3-.53.61l-.42.36c-.42-.43-.89-.81-1.41-1.14l-.4.64c1.13.71,2.02,1.73,2.56,2.93l.69-.31c-.25-.55-.57-1.07-.94-1.55l.4-.35c.06.01.13.02.19,0Z"/>
          <path class="st3" d="M265.04,473.37c-.39.02-.77.03-1.16.03-.88,0-1.73-.06-2.48-.18-.39-.06-.85-.15-1.27-.29,1.05,1.86,3.07,3.12,5.39,3.12,2.86,0,5.26-1.92,5.95-4.5-.68.45-1.51.83-2.46,1.12-1.18.37-2.55.61-3.97.69Z"/>
          <path class="st3" d="M265.59,464.68c-3.35,0-6.08,2.67-6.08,5.94,0,.43.05.85.14,1.26.67.48,2.71.89,5.35.73,2.88-.17,5.3-.96,6.67-2.16,0-.19-.02-.39-.05-.58-.38-2.96-2.97-5.2-6.03-5.2ZM263.43,471.19c-1.02,0-1.85-.83-1.85-1.85s.83-1.85,1.85-1.85,1.85.83,1.85,1.85-.83,1.85-1.85,1.85ZM268.17,470.29c-.75,0-1.36-.61-1.36-1.36s.61-1.36,1.36-1.36,1.36.61,1.36,1.36-.61,1.36-1.36,1.36Z"/>
        </g>
        <path class="st3" d="M281.6,466.55c-.29-.12-.81-.31-1.38-.24-.55.07-.84.34-.84,1.01v.87h2.23v1.72h-2.23v5.45h-1.93v-5.45h-1.34v-1.72h1.34v-.89c0-1.68.9-2.78,2.57-2.78.64,0,1.16.12,1.59.31v1.73Z"/>
        <path class="st3" d="M286.3,469.88c-.18-.03-.36-.05-.53-.05-.9,0-1.51.55-1.51,1.61v3.91h-1.93v-7.17h1.87v.78c.45-.67,1.14-.98,2.02-.98.41,0,.85.13,1.09.34l-1.02,1.55Z"/>
        <path class="st3" d="M293.97,471.76c0,.22-.01.49-.04.65h-5.08c.21,1.04.93,1.49,1.84,1.49.62,0,1.3-.25,1.81-.69l1.13,1.24c-.81.75-1.85,1.09-3.06,1.09-2.2,0-3.72-1.5-3.72-3.75s1.48-3.8,3.63-3.8,3.48,1.53,3.49,3.77ZM288.85,471.09h3.18c-.18-.92-.73-1.44-1.56-1.44-.91,0-1.44.55-1.61,1.44Z"/>
        <path class="st3" d="M301.62,471.76c0,.22-.01.49-.04.65h-5.08c.21,1.04.93,1.49,1.84,1.49.62,0,1.3-.25,1.81-.69l1.13,1.24c-.81.75-1.85,1.09-3.06,1.09-2.2,0-3.72-1.5-3.72-3.75s1.48-3.8,3.63-3.8,3.48,1.53,3.49,3.77ZM296.5,471.09h3.18c-.18-.92-.73-1.44-1.56-1.44-.91,0-1.44.55-1.61,1.44Z"/>
        <path class="st3" d="M309.96,471.76c0,2.15-1.5,3.77-3.47,3.77-.96,0-1.64-.38-2.11-.93v3.71h-1.92v-10.13h1.89v.79c.47-.58,1.15-.98,2.14-.98,1.98,0,3.48,1.62,3.48,3.77ZM304.29,471.76c0,1.13.75,1.98,1.84,1.98s1.85-.88,1.85-1.98-.71-1.98-1.85-1.98-1.84.84-1.84,1.98Z"/>
        <path class="st3" d="M313.07,465.84c0,.7-.54,1.23-1.24,1.23s-1.23-.53-1.23-1.23.53-1.24,1.23-1.24,1.24.55,1.24,1.24ZM312.81,475.35h-1.93v-7.17h1.93v7.17Z"/>
        <path class="st3" d="M316.03,470.74l2.7-2.55h2.37l-3.48,3.38,3.5,3.8h-2.38l-2.72-2.9v2.9h-1.93v-10.66h1.93v6.04Z"/>
      </g>
      <g>
        <path class="st3" d="M184.41,475.29v-1.05c-.53.72-1.39,1.23-2.39,1.23-1.85,0-3.15-1.41-3.15-3.71s1.29-3.72,3.15-3.72c.95,0,1.82.47,2.39,1.25v-3.76h1.1v9.77h-1.1ZM184.41,473.37v-3.21c-.4-.62-1.24-1.14-2.12-1.14-1.42,0-2.27,1.17-2.27,2.74s.85,2.72,2.27,2.72c.88,0,1.73-.5,2.12-1.11Z"/>
        <path class="st3" d="M186.93,471.74c0-2.05,1.46-3.71,3.49-3.71,2.14,0,3.4,1.67,3.4,3.79v.28h-5.73c.09,1.33,1.03,2.45,2.55,2.45.81,0,1.63-.32,2.18-.89l.53.72c-.7.7-1.65,1.08-2.81,1.08-2.09,0-3.6-1.51-3.6-3.72ZM190.4,468.95c-1.51,0-2.26,1.27-2.31,2.36h4.64c-.01-1.05-.72-2.36-2.33-2.36Z"/>
        <path class="st3" d="M194.61,474.35l.57-.79c.47.54,1.36,1.01,2.33,1.01,1.08,0,1.67-.51,1.67-1.22,0-1.71-4.38-.66-4.38-3.28,0-1.1.95-2.04,2.64-2.04,1.2,0,2.05.45,2.62,1.03l-.51.76c-.42-.51-1.2-.89-2.11-.89-.97,0-1.57.48-1.57,1.11,0,1.55,4.38.53,4.38,3.28,0,1.19-.95,2.14-2.78,2.14-1.16,0-2.14-.35-2.86-1.11Z"/>
        <path class="st3" d="M201.48,466.47c0-.41.34-.75.73-.75s.75.34.75.75-.34.73-.75.73-.73-.32-.73-.73ZM201.67,475.29v-7.07h1.1v7.07h-1.1Z"/>
        <path class="st3" d="M204.58,477.11l.56-.82c.59.7,1.29.97,2.3.97,1.17,0,2.27-.57,2.27-2.12v-1.01c-.51.72-1.38,1.26-2.37,1.26-1.85,0-3.15-1.38-3.15-3.66s1.29-3.68,3.15-3.68c.95,0,1.8.47,2.37,1.25v-1.07h1.1v6.87c0,2.34-1.64,3.08-3.37,3.08-1.2,0-2.02-.23-2.86-1.05ZM209.71,473.25v-3.09c-.38-.62-1.23-1.14-2.11-1.14-1.42,0-2.27,1.13-2.27,2.7s.85,2.7,2.27,2.7c.88,0,1.73-.54,2.11-1.16Z"/>
        <path class="st3" d="M217.41,475.29v-4.63c0-1.24-.63-1.64-1.58-1.64-.86,0-1.68.53-2.09,1.1v5.17h-1.1v-7.07h1.1v1.03c.5-.59,1.46-1.2,2.52-1.2,1.48,0,2.26.75,2.26,2.28v4.97h-1.1Z"/>
        <path class="st3" d="M219.93,471.74c0-2.05,1.46-3.71,3.49-3.71,2.14,0,3.4,1.67,3.4,3.79v.28h-5.73c.09,1.33,1.03,2.45,2.55,2.45.81,0,1.63-.32,2.18-.89l.53.72c-.7.7-1.66,1.08-2.81,1.08-2.09,0-3.6-1.51-3.6-3.72ZM223.4,468.95c-1.51,0-2.26,1.27-2.31,2.36h4.64c-.01-1.05-.72-2.36-2.33-2.36Z"/>
        <path class="st3" d="M233.35,475.29v-1.05c-.53.72-1.39,1.23-2.39,1.23-1.85,0-3.15-1.41-3.15-3.71s1.29-3.72,3.15-3.72c.95,0,1.82.47,2.39,1.25v-3.76h1.1v9.77h-1.1ZM233.35,473.37v-3.21c-.4-.62-1.25-1.14-2.12-1.14-1.42,0-2.27,1.17-2.27,2.74s.85,2.72,2.27,2.72c.88,0,1.73-.5,2.12-1.11Z"/>
        <path class="st3" d="M239.69,475.29v-9.77h1.1v3.76c.57-.78,1.42-1.25,2.39-1.25,1.85,0,3.15,1.46,3.15,3.72s-1.3,3.71-3.15,3.71c-1,0-1.86-.51-2.39-1.23v1.05h-1.1ZM242.9,474.48c1.44,0,2.29-1.16,2.29-2.72s-.85-2.74-2.29-2.74c-.86,0-1.73.53-2.11,1.14v3.21c.38.62,1.25,1.11,2.11,1.11Z"/>
        <path class="st3" d="M247.53,477.06c.16.07.42.12.6.12.48,0,.81-.16,1.05-.75l.47-1.07-2.96-7.15h1.19l2.36,5.8,2.34-5.8h1.2l-3.54,8.51c-.42,1.03-1.14,1.42-2.08,1.44-.23,0-.6-.04-.81-.1l.18-1Z"/>
      </g>
    </g>
  </g>
</svg>